<?xml version="1.0" standalone="no"?>
<!DOCTYPE svg PUBLIC "-//W3C//DTD SVG 20010904//EN"
 "http://www.w3.org/TR/2001/REC-SVG-20010904/DTD/svg10.dtd">
<svg version="1.0" xmlns="http://www.w3.org/2000/svg"
 width="2026.000000pt" height="1181.000000pt" viewBox="0 0 2026.000000 1181.000000"
 preserveAspectRatio="xMidYMid meet">

<g transform="translate(0.000000,1181.000000) scale(0.100000,-0.100000)"
fill="#000000" stroke="none">
<path d="M0 5905 l0 -5905 10130 0 10130 0 0 5905 0 5905 -10130 0 -10130 0 0
-5905z m13567 4833 c13 -12 23 -26 23 -32 0 -6 -5 -5 -12 2 -23 23 -28 12 -28
-64 0 -47 -4 -73 -10 -69 -5 3 -10 38 -10 77 0 62 -2 69 -15 58 -26 -22 -30
-1 -5 25 28 30 28 30 57 3z m-1009 -11 l22 -23 -30 -29 c-30 -29 -54 -29 -30
0 10 12 10 15 -4 15 -26 0 -66 -46 -66 -75 0 -33 42 -75 75 -75 39 0 61 16 75
52 10 26 14 29 17 14 17 -69 -94 -113 -154 -62 -23 20 -28 32 -28 71 0 39 5
51 28 71 15 13 40 24 54 24 25 0 26 0 8 20 -27 30 5 27 33 -3z m4320 11 c7 -7
12 -20 12 -29 0 -12 9 -19 28 -21 l27 -3 0 -95 0 -95 -97 -3 c-97 -3 -97 -3
-104 23 -3 14 -13 25 -23 25 -32 0 -41 22 -41 101 0 57 4 82 16 93 19 20 163
23 182 4z m-10273 -18 c4 -7 12 -7 25 0 29 16 91 12 112 -7 15 -13 18 -32 18
-112 l0 -96 -140 0 -140 0 0 102 c0 87 3 104 18 112 22 13 99 14 107 1z
m-3205 -8 c0 -4 -20 -28 -45 -52 l-45 -44 47 -48 c26 -26 44 -51 40 -55 -4 -4
-32 18 -62 47 l-55 54 52 53 c50 51 68 63 68 45z m1579 -38 c28 -25 51 -50 51
-55 0 -17 -92 -109 -109 -109 -10 0 4 19 37 52 l52 53 -52 52 c-64 65 -49 70
21 7z m10201 1 l0 -45 50 0 c64 0 66 -18 3 -22 l-48 -3 -3 -47 c-4 -64 -22
-62 -22 2 l0 50 -51 0 c-31 0 -48 4 -44 10 3 6 26 10 51 10 l44 0 0 45 c0 25
5 45 10 45 6 0 10 -20 10 -45z m-5542 3 c7 -7 12 -21 12 -33 0 -12 5 -26 11
-32 6 -6 9 -26 7 -44 -3 -34 -4 -34 -57 -37 l-54 -3 6 68 c8 82 40 116 75 81z
m772 -23 c0 -20 5 -25 25 -25 32 0 48 -30 35 -64 -8 -21 -16 -26 -45 -26 l-35
0 0 70 c0 40 4 70 10 70 6 0 10 -11 10 -25z m3100 15 c0 -5 -14 -10 -30 -10
l-31 0 3 -82 3 -83 88 -3 87 -3 0 86 c0 84 0 85 -25 85 -14 0 -25 5 -25 11 0
6 14 9 33 7 l32 -3 3 -98 3 -98 -108 3 -108 3 -3 83 c-2 53 1 89 9 98 13 16
69 19 69 4z m-5763 -62 c24 -64 22 -89 -4 -50 -19 28 -53 29 -60 2 -6 -24 -48
-28 -57 -5 -7 20 -33 19 -45 -2 -5 -10 -12 -15 -15 -12 -10 9 27 99 40 99 7 0
18 -17 24 -37 18 -55 24 -57 39 -15 28 76 31 82 43 82 7 0 23 -28 35 -62z
m2243 37 c0 -8 6 -15 13 -16 10 0 10 -2 0 -6 -7 -2 -13 -20 -13 -38 0 -18 6
-36 13 -38 6 -3 2 -6 -10 -6 -26 -1 -38 36 -34 102 1 21 31 23 31 2z m-152
-61 c3 -40 3 -41 -33 -42 -23 -1 -38 4 -42 13 -7 20 14 45 39 45 11 0 16 4 12
11 -3 6 -15 9 -25 6 -11 -3 -19 -1 -19 5 0 5 15 8 33 6 30 -3 32 -6 35 -44z
m42 5 c0 -52 24 -48 28 4 2 24 8 37 18 37 10 0 14 -13 14 -45 0 -44 -1 -45
-33 -45 -42 0 -57 15 -57 57 0 23 5 33 15 33 11 0 15 -11 15 -41z m218 29 c7
-7 12 -21 12 -33 0 -29 -19 -45 -52 -45 -25 0 -48 23 -48 49 0 33 63 54 88 29z
m160 -35 c2 -26 -1 -43 -7 -43 -6 0 -11 15 -11 34 0 38 -17 57 -31 35 -5 -8
-9 -26 -9 -41 0 -42 -18 -34 -22 10 -2 20 -7 37 -13 37 -5 0 -11 -17 -13 -37
-4 -53 -22 -47 -22 7 l0 45 63 -3 62 -2 3 -42z m100 35 c28 -28 7 -78 -32 -78
-33 0 -48 15 -48 45 0 41 51 62 80 33z m242 4 c0 -5 -10 -8 -22 -8 -19 1 -23
-4 -23 -29 0 -25 4 -30 23 -29 12 0 22 -3 22 -8 0 -10 -41 -10 -56 0 -34 23
-12 82 32 82 13 0 24 -4 24 -8z m84 -8 c3 -9 6 -29 6 -45 0 -29 -2 -30 -37
-27 -30 2 -39 7 -41 25 -3 17 3 24 22 29 14 3 26 11 26 16 0 6 -9 8 -20 5 -11
-3 -20 -1 -20 4 0 16 58 10 64 -7z m-174 -64 c0 -5 -4 -10 -10 -10 -5 0 -10 5
-10 10 0 6 5 10 10 10 6 0 10 -4 10 -10z m6483 -277 c-7 -2 -19 -2 -25 0 -7 3
-2 5 12 5 14 0 19 -2 13 -5z m97 -3 c13 -9 13 -10 0 -9 -8 0 -24 4 -35 9 l-20
9 20 0 c11 0 27 -4 35 -9z m-15093 -577 c-3 -10 -5 -4 -5 12 0 17 2 24 5 18 2
-7 2 -21 0 -30z m12961 -138 c2 -22 8 -45 13 -51 12 -15 1 -24 -31 -24 -35 0
-42 8 -27 31 9 15 9 24 -1 40 -10 16 -11 24 -1 35 22 26 44 12 47 -31z m-268
5 c0 -18 7 -20 60 -20 53 0 60 -2 60 -20 0 -10 13 -35 30 -53 16 -19 27 -37
23 -41 -3 -3 -37 -6 -74 -6 -62 0 -67 -1 -62 -20 5 -17 14 -20 64 -20 62 0 68
-3 45 -26 -17 -16 -46 -19 -46 -4 0 6 -9 10 -20 10 -11 0 -20 -4 -20 -10 0
-14 -29 -12 -44 3 -7 6 -21 54 -31 105 -10 56 -23 96 -31 99 -25 9 -15 23 16
23 23 0 30 -4 30 -20z m574 -14 c-3 -8 3 -16 15 -19 12 -3 21 -10 21 -16 0 -9
-5 -9 -20 -1 -18 10 -20 8 -20 -25 0 -19 4 -35 9 -35 12 0 41 -29 41 -41 0
-10 -65 -79 -75 -79 -3 0 -5 6 -5 14 0 8 -9 18 -20 21 -11 3 -20 11 -20 16 0
12 14 11 27 -2 7 -7 12 -1 17 22 5 26 1 36 -19 55 -14 13 -25 27 -25 33 0 12
28 41 41 41 5 0 9 7 9 15 0 8 7 15 15 15 8 0 12 -6 9 -14z m-99 -23 c-28 -68
-28 -109 0 -175 12 -30 -13 -20 -30 12 -28 54 -10 180 26 180 7 0 8 -7 4 -17z
m936 -10 c21 -53 22 -93 4 -138 -9 -25 -23 -45 -31 -45 -12 0 -12 4 1 30 8 16
15 50 15 75 0 25 -7 59 -15 75 -14 27 -14 30 0 30 9 0 20 -12 26 -27z m2066
-5 c-3 -7 -5 -2 -5 12 0 14 2 19 5 13 2 -7 2 -19 0 -25z m-4956 -34 l32 -57
31 56 c44 81 56 75 56 -28 0 -50 -4 -85 -10 -85 -6 0 -10 28 -10 63 l-1 62
-27 -47 c-15 -27 -32 -48 -38 -48 -7 0 -24 19 -38 43 l-25 42 -1 -57 c0 -45
-3 -58 -15 -58 -12 0 -15 16 -15 85 0 104 14 111 61 29z m430 -29 c27 -62 33
-85 22 -85 -7 0 -19 11 -25 25 -9 19 -19 25 -45 25 -26 0 -36 -6 -45 -25 -6
-14 -17 -25 -24 -25 -11 0 -9 12 6 50 41 103 49 120 62 120 7 0 29 -38 49 -85z
m1783 79 c18 -7 22 -59 6 -69 -6 -4 -4 -12 5 -21 8 -9 15 -22 15 -29 0 -43
-82 -61 -115 -25 -23 25 0 28 27 3 15 -13 23 -15 36 -6 26 16 22 56 -7 63
l-24 5 27 13 c31 14 32 38 3 56 -16 9 -22 7 -34 -11 -17 -25 -33 -30 -33 -10
0 31 51 48 94 31z m150 -16 c9 -12 16 -41 16 -63 0 -56 -22 -85 -65 -85 -43 0
-65 29 -65 85 0 56 22 85 65 85 24 0 39 -7 49 -22z m116 15 c-19 -3 -38 -10
-42 -16 -13 -21 -9 -37 10 -37 50 0 80 -60 46 -94 -18 -18 -72 -21 -94 -5 -11
8 -7 9 17 5 45 -8 63 2 63 33 0 37 -17 51 -53 44 -26 -5 -29 -4 -24 11 4 10 7
29 7 42 0 23 3 24 53 22 40 -1 44 -2 17 -5z m204 -9 c9 -8 16 -20 16 -25 0
-17 19 -9 25 11 13 42 94 38 113 -5 24 -53 6 -121 -35 -131 -34 -9 -71 3 -78
26 -3 11 -10 20 -15 20 -5 0 -12 -9 -15 -20 -7 -23 -44 -35 -78 -26 -54 13
-63 125 -13 158 19 13 64 9 80 -8z m716 -63 l0 -80 43 -4 c36 -3 34 -4 -15 -5
l-58 -2 0 85 c0 69 3 85 15 85 12 0 15 -15 15 -79z m-2290 49 c0 -14 7 -20 23
-21 l22 -2 -23 -4 c-21 -4 -23 -9 -20 -51 2 -38 6 -46 21 -44 9 2 17 -2 17 -8
0 -5 -13 -10 -30 -10 -29 0 -30 1 -30 50 0 32 -4 50 -12 50 -9 0 -9 3 0 12 7
7 12 20 12 30 0 10 5 18 10 18 6 0 10 -9 10 -20z m2920 0 c0 -14 7 -20 23 -21
l22 -2 -22 -4 c-20 -4 -23 -10 -23 -54 0 -46 2 -50 20 -44 11 4 20 2 20 -4 0
-6 -13 -11 -29 -11 -32 0 -41 14 -41 66 0 19 -5 34 -12 34 -6 0 -4 7 5 18 10
10 17 24 17 30 0 7 5 12 10 12 6 0 10 -9 10 -20z m-3850 -62 l19 -43 17 43 c9
23 23 42 31 42 17 0 18 4 -22 -84 -22 -48 -40 -76 -50 -76 -14 0 -15 2 -1 21
13 20 13 26 -3 58 -27 53 -34 81 -21 81 6 0 20 -19 30 -42z m386 31 c5 -9 -1
-10 -20 -5 -35 9 -56 -8 -56 -44 0 -36 21 -53 56 -44 19 5 25 4 20 -5 -11 -17
-67 -13 -88 6 -40 36 -9 103 47 103 19 0 37 -5 41 -11z m110 0 c5 -9 -1 -10
-20 -5 -35 9 -56 -8 -56 -44 0 -36 21 -53 56 -44 19 5 25 4 20 -5 -11 -17 -67
-13 -88 6 -40 36 -9 103 47 103 19 0 37 -5 41 -11z m113 -3 c16 -20 17 -72 1
-91 -17 -20 -69 -19 -92 2 -22 20 -23 61 -1 85 19 22 76 24 92 4z m51 -28 c0
-55 11 -72 39 -63 18 5 21 14 21 56 0 37 4 49 15 49 12 0 15 -13 15 -61 l0
-60 -52 3 -53 3 -3 58 c-2 35 1 57 8 57 5 0 10 -19 10 -42z m208 30 c18 -18
16 -108 -3 -108 -11 0 -15 12 -15 49 0 52 -8 65 -34 55 -12 -4 -16 -20 -16
-55 0 -37 -4 -49 -15 -49 -12 0 -15 13 -15 60 l0 60 43 0 c24 0 48 -5 55 -12z
m2536 -4 c9 -8 16 -28 16 -44 0 -38 -24 -60 -64 -60 -41 0 -56 16 -56 60 0 20
5 41 12 48 17 17 74 15 92 -4z m126 6 c14 -4 20 -8 13 -9 -6 -1 -13 -11 -15
-23 -2 -16 -13 -26 -35 -33 -44 -12 -42 -23 5 -27 32 -3 37 -6 37 -28 0 -23
-4 -25 -46 -28 -53 -3 -81 16 -56 39 10 10 12 23 5 52 -14 61 18 81 92 57z
m124 -6 c9 -8 16 -28 16 -44 0 -38 -24 -60 -65 -60 -38 0 -55 20 -55 64 0 33
25 56 60 56 16 0 36 -7 44 -16z m56 -34 c0 -36 4 -52 15 -56 26 -10 45 16 45
62 0 24 5 44 10 44 6 0 10 -27 10 -60 l0 -60 -45 0 c-52 0 -65 16 -65 79 0 30
4 41 15 41 11 0 15 -12 15 -50z m-13770 -31 l0 -70 -42 3 c-42 3 -43 4 -46 40
-2 29 1 39 18 48 12 6 28 9 36 6 10 -4 14 2 14 19 0 14 5 25 10 25 6 0 10 -30
10 -71z m2080 47 c0 -19 4 -23 19 -19 10 2 25 -3 35 -12 21 -21 22 -85 1 -85
-11 0 -15 11 -15 38 0 21 -3 42 -7 45 -13 13 -33 -16 -33 -49 0 -19 -4 -34
-10 -34 -6 0 -10 30 -10 70 0 40 4 70 10 70 6 0 10 -11 10 -24z m210 14 c0 -5
-7 -10 -16 -10 -8 0 -12 5 -9 10 3 6 10 10 16 10 5 0 9 -4 9 -10z m220 -60 c0
-40 -4 -70 -10 -70 -6 0 -10 30 -10 70 0 40 4 70 10 70 6 0 10 -30 10 -70z
m134 64 c28 -11 17 -24 -14 -17 -25 4 -30 2 -30 -14 0 -12 11 -23 31 -30 25
-10 30 -16 27 -40 -3 -24 -8 -28 -37 -31 -18 -2 -39 2 -45 8 -8 8 -1 10 24 8
49 -4 52 23 5 50 -38 23 -45 45 -17 61 20 12 34 13 56 5z m1162 -9 c22 -17 15
-19 -19 -6 -50 19 -85 -37 -56 -91 9 -17 17 -19 52 -14 30 4 38 3 27 -4 -18
-11 -70 -13 -87 -2 -21 13 -33 60 -23 87 15 41 71 56 106 30z m1280 0 c22 -17
15 -19 -19 -6 -50 19 -85 -37 -56 -91 9 -17 17 -19 52 -14 30 4 38 3 27 -4
-18 -11 -70 -13 -87 -2 -21 13 -33 60 -23 87 15 41 71 56 106 30z m-5371 -30
c0 -25 -5 -32 -32 -40 -25 -7 -33 -15 -33 -32 0 -13 -4 -23 -10 -23 -6 0 -10
29 -10 66 l0 65 43 -3 c39 -3 42 -5 42 -33z m525 16 c0 -23 27 -32 52 -17 11
7 24 6 40 -1 l23 -12 -27 0 c-35 -1 -36 -18 -3 -31 27 -10 30 -17 16 -38 -5
-9 -26 -12 -67 -10 l-59 3 -3 36 c-3 30 -8 38 -27 42 -30 5 -48 -13 -43 -45 2
-18 9 -23 31 -21 15 1 27 -2 27 -8 0 -5 -16 -9 -35 -9 -29 0 -37 5 -45 26 -17
45 16 80 65 68 18 -4 25 -1 30 15 8 26 25 27 25 2z m678 -7 c2 -11 -4 -26 -12
-33 -14 -12 -14 -16 5 -42 29 -41 3 -38 -32 4 l-28 32 -1 -32 c0 -18 -4 -33
-10 -33 -6 0 -10 29 -10 66 l0 65 43 -3 c34 -2 43 -7 45 -24z m432 7 c0 -23
27 -32 52 -17 11 7 24 6 40 -1 l23 -12 -27 0 c-35 -1 -36 -18 -2 -31 16 -7 24
-16 22 -28 -3 -14 -16 -18 -66 -20 l-62 -3 0 41 c0 38 -2 40 -30 40 -28 0 -30
-2 -30 -40 0 -29 -4 -40 -15 -40 -9 0 -15 9 -16 23 l0 22 -9 -22 c-13 -32 -79
-33 -87 -3 l-6 21 -14 -21 c-8 -11 -25 -20 -39 -20 -15 0 -24 -6 -24 -15 0 -8
-4 -15 -10 -15 -6 0 -10 26 -10 59 0 55 2 59 25 65 27 7 65 -8 65 -24 0 -6 9
-1 20 10 11 11 26 20 33 20 17 0 43 -21 50 -40 4 -10 6 -8 6 6 1 24 39 39 72
29 15 -5 19 -1 19 14 0 12 5 21 10 21 6 0 10 -9 10 -19z m518 12 c-27 -4 -28
-7 -28 -64 0 -46 -3 -59 -15 -59 -12 0 -15 13 -15 59 0 54 -2 60 -22 64 -13 2
6 4 42 4 36 0 53 -2 38 -4z m1322 -13 c0 -12 7 -20 18 -21 16 -1 16 -2 0 -6
-13 -3 -18 -14 -18 -38 0 -24 5 -35 18 -38 10 -3 6 -5 -10 -6 -26 -1 -28 2
-28 40 0 38 -1 40 -27 37 -24 -3 -28 -8 -31 -40 -4 -53 -22 -48 -22 6 0 38 3
45 24 50 14 3 32 3 40 0 12 -4 16 0 16 15 0 12 5 21 10 21 6 0 10 -9 10 -20z
m880 0 c0 -12 7 -20 18 -21 16 -1 16 -2 0 -6 -13 -3 -18 -14 -18 -38 0 -24 5
-35 18 -38 10 -3 6 -5 -10 -6 -26 -1 -28 2 -28 39 0 22 -4 40 -10 40 -5 0 -10
-18 -10 -40 0 -29 -4 -40 -15 -40 -11 0 -15 11 -15 41 0 33 -3 40 -17 37 -13
-2 -19 -14 -21 -41 -4 -52 -22 -46 -22 7 0 42 2 45 31 51 17 4 35 3 41 -3 15
-15 38 -3 38 19 0 10 5 19 10 19 6 0 10 -9 10 -20z m250 0 c0 -12 7 -20 18
-21 16 -1 16 -2 0 -6 -13 -3 -18 -14 -18 -38 0 -24 5 -35 18 -38 10 -3 6 -5
-10 -6 -26 -1 -28 2 -28 38 0 35 -3 39 -30 43 -35 5 -53 -11 -48 -44 2 -18 9
-23 31 -21 15 1 27 -3 27 -8 0 -6 -17 -9 -37 -7 -36 3 -38 5 -41 40 -4 44 19
61 67 52 27 -6 31 -4 31 15 0 11 5 21 10 21 6 0 10 -9 10 -20z m100 -21 c0
-49 15 -79 39 -79 23 0 31 19 31 76 0 32 4 44 15 44 21 0 20 -78 -1 -108 -20
-29 -79 -31 -94 -3 -13 25 -13 111 0 111 6 0 10 -18 10 -41z m-4620 1 c0 -5
-9 -10 -20 -10 -17 0 -20 -7 -20 -40 0 -29 -4 -40 -15 -40 -23 0 -21 87 3 93
31 8 52 7 52 -3z m81 0 c22 -12 26 -59 7 -78 -7 -7 -24 -12 -38 -12 -32 0 -50
17 -50 46 0 44 40 65 81 44z m1125 2 c6 -4 13 -15 17 -24 5 -15 0 -18 -34 -18
-37 0 -39 -1 -29 -21 9 -16 18 -19 36 -15 14 4 24 2 24 -4 0 -14 -63 -13 -78
2 -39 39 19 111 64 80z m939 -6 c16 -11 21 -11 33 0 16 16 41 18 62 4 11 -7 7
-10 -18 -10 -31 0 -33 -2 -30 -32 3 -29 6 -33 31 -31 15 1 27 -3 27 -8 0 -6
-17 -9 -37 -7 -28 2 -41 9 -48 26 -13 29 -79 33 -73 5 2 -12 13 -18 30 -18 15
-1 30 -4 34 -8 4 -4 -12 -7 -35 -7 -35 0 -43 4 -51 26 -20 52 30 93 75 60z
m293 2 c18 -18 16 -88 -3 -88 -11 0 -15 11 -15 41 0 33 -3 40 -17 37 -13 -2
-19 -14 -21 -41 -4 -52 -22 -46 -22 7 0 34 4 46 18 49 32 8 48 7 60 -5z m142
2 c11 -7 7 -10 -17 -10 -30 0 -33 -3 -33 -30 0 -40 24 -48 60 -21 16 11 36 21
45 21 8 0 15 6 15 13 0 21 -11 27 -31 16 -11 -6 -19 -6 -19 0 0 9 23 21 40 21
19 0 40 -34 40 -65 l0 -34 -77 0 c-84 1 -103 9 -103 45 0 43 44 67 80 44z
m471 0 c22 -12 26 -59 7 -78 -7 -7 -22 -12 -35 -12 -14 0 -23 -6 -23 -15 0 -8
-4 -15 -10 -15 -6 0 -10 26 -10 59 0 48 3 60 18 64 28 8 33 7 53 -3z m109 -10
c11 -11 20 -16 20 -10 0 19 41 33 65 22 26 -12 35 -39 24 -70 -12 -31 -78 -32
-86 -2 l-6 21 -14 -21 c-8 -11 -25 -20 -39 -20 -15 0 -24 -6 -24 -15 0 -8 -4
-15 -10 -15 -6 0 -10 26 -10 59 0 48 3 60 18 64 33 9 42 7 62 -13z m950 0 c46
-46 0 -98 -64 -74 -23 9 -21 70 2 83 25 15 40 13 62 -9z m268 8 c7 -7 12 -29
12 -50 0 -38 0 -38 -41 -38 -36 0 -40 2 -37 23 2 16 11 23 31 25 36 4 29 28
-7 25 -27 -2 -36 11 -13 20 22 9 43 7 55 -5z m422 2 c12 -8 9 -10 -12 -10 -35
0 -36 -17 -3 -30 27 -10 28 -11 19 -34 -4 -11 -18 -16 -43 -15 -30 2 -31 3 -8
6 23 4 41 33 19 33 -5 0 -17 6 -27 14 -16 12 -17 16 -6 30 15 18 39 20 61 6z
m574 4 c11 -4 16 -19 16 -50 l0 -44 -40 0 c-33 0 -40 3 -40 20 0 15 9 22 30
27 22 4 30 11 27 22 -3 16 -8 17 -42 6 -20 -7 -20 -6 -1 9 22 18 27 19 50 10z
m101 -4 c4 -6 14 -5 29 1 27 13 66 -3 66 -26 0 -10 -11 -15 -36 -15 -28 0 -35
-3 -32 -17 3 -13 13 -18 36 -17 18 1 32 -2 32 -7 0 -13 -64 -11 -78 3 -7 7
-12 24 -12 39 0 30 -21 44 -39 26 -6 -6 -11 -26 -11 -44 0 -18 -4 -33 -10 -33
-5 0 -10 20 -10 44 0 34 4 46 18 49 30 8 41 7 47 -3z m176 0 c33 -18 23 -40
-17 -40 -28 0 -35 -3 -32 -17 3 -13 13 -18 36 -17 18 1 32 -2 32 -7 0 -13 -64
-11 -78 3 -18 18 -15 65 6 77 22 13 29 13 53 1z m94 0 c4 -6 13 -5 25 2 14 9
24 9 42 1 l23 -12 -27 0 c-35 -1 -36 -18 -3 -31 27 -10 28 -11 19 -34 -4 -11
-18 -16 -43 -15 -30 2 -31 3 -8 6 34 5 35 26 2 41 -14 6 -25 16 -25 22 0 5 -9
10 -20 10 -17 0 -20 -7 -20 -40 0 -29 -4 -40 -15 -40 -23 0 -21 87 3 93 30 8
41 7 47 -3z m-5505 -41 c0 -33 3 -40 18 -37 12 2 18 14 20 41 5 53 22 46 22
-9 l0 -45 -37 3 c-37 3 -38 4 -41 46 -2 25 1 42 7 42 6 0 11 -18 11 -41z
m2250 -4 c0 -25 -4 -45 -10 -45 -5 0 -10 20 -10 45 0 25 5 45 10 45 6 0 10
-20 10 -45z m400 18 c0 -37 14 -57 34 -50 10 4 16 19 16 42 0 19 5 35 10 35 6
0 10 -21 10 -46 l0 -45 -42 3 c-43 3 -43 3 -46 46 -2 25 1 42 7 42 6 0 11 -12
11 -27z m9755 -23 c3 -5 -3 -10 -14 -10 -12 0 -21 5 -21 10 0 6 6 10 14 10 8
0 18 -4 21 -10z m-13778 -62 c-3 -8 -6 -5 -6 6 -1 11 2 17 5 13 3 -3 4 -12 1
-19z m16170 -44 c-3 -3 -12 -4 -19 -1 -8 3 -5 6 6 6 11 1 17 -2 13 -5z m0
-236 c-3 -8 -6 -5 -6 6 -1 11 2 17 5 13 3 -3 4 -12 1 -19z m3 -122 c0 -2 -7
-7 -16 -10 -8 -3 -12 -2 -9 4 6 10 25 14 25 6z m-410 -3796 l0 -3760 -7680 0
-7680 0 0 3760 0 3760 7680 0 7680 0 0 -3760z m410 3719 c0 -5 -7 -9 -15 -9
-9 0 -12 6 -9 15 6 15 24 11 24 -6z m-16173 -116 c-3 -10 -5 -4 -5 12 0 17 2
24 5 18 2 -7 2 -21 0 -30z m16173 -33 c0 -5 -2 -10 -4 -10 -3 0 -8 5 -11 10
-3 6 -1 10 4 10 6 0 11 -4 11 -10z m-3 -42 c-3 -8 -6 -5 -6 6 -1 11 2 17 5 13
3 -3 4 -12 1 -19z m-16152 -38 c3 -6 -1 -7 -9 -4 -18 7 -21 14 -7 14 6 0 13
-4 16 -10z m-18 -62 c-3 -7 -5 -2 -5 12 0 14 2 19 5 13 2 -7 2 -19 0 -25z m23
-67 c0 -6 -7 -8 -15 -5 -8 4 -15 15 -15 26 0 17 2 18 15 4 8 -8 15 -19 15 -25z
m16143 -30 c-4 -3 -11 -10 -15 -15 -4 -4 -6 1 -5 12 1 12 6 18 15 15 7 -3 10
-9 5 -12z m-16166 -43 c-3 -8 -6 -5 -6 6 -1 11 2 17 5 13 3 -3 4 -12 1 -19z
m16173 -24 c0 -2 -7 -4 -15 -4 -8 0 -15 4 -15 10 0 5 7 7 15 4 8 -4 15 -8 15
-10z m-16159 -137 c-14 -14 -14 -47 -1 -47 6 0 10 -6 10 -13 0 -8 -7 -14 -15
-14 -12 0 -15 14 -15 64 0 40 4 62 10 58 6 -4 11 13 12 42 2 41 2 38 5 -16 2
-36 0 -68 -6 -74z m16136 51 c-3 -7 -5 -2 -5 12 0 14 2 19 5 13 2 -7 2 -19 0
-25z m20 -20 c-3 -8 -6 -5 -6 6 -1 11 2 17 5 13 3 -3 4 -12 1 -19z m3 -92 c0
-2 -7 -6 -15 -10 -8 -3 -15 -1 -15 4 0 6 7 10 15 10 8 0 15 -2 15 -4z m0 -36
c0 -5 -7 -10 -15 -10 -8 0 -15 5 -15 10 0 6 7 10 15 10 8 0 15 -4 15 -10z
m-16150 -71 c0 -42 -4 -68 -10 -64 -5 3 -11 -33 -13 -92 -2 -78 -3 -68 -5 50
-1 97 1 146 8 142 6 -3 10 -1 10 4 0 6 -6 11 -12 11 -9 0 -8 4 2 10 8 5 16 10
18 10 1 0 2 -32 2 -71z m16132 11 c-2 -16 -6 -30 -8 -30 -2 0 -4 14 -4 30 0
17 4 30 8 30 5 0 7 -13 4 -30z m15 -12 c-3 -8 -6 -5 -6 6 -1 11 2 17 5 13 3
-3 4 -12 1 -19z m-2 -38 c3 -5 1 -10 -4 -10 -6 0 -11 5 -11 10 0 6 2 10 4 10
3 0 8 -4 11 -10z m-6 -47 c0 -5 -4 -17 -9 -28 -8 -18 -9 -17 -9 8 -1 15 4 27
9 27 6 0 10 -3 9 -7z m-1 -73 c5 -51 1 -80 -10 -80 -4 0 -8 23 -8 50 0 48 14
71 18 30z m-16141 -102 c-3 -8 -6 -5 -6 6 -1 11 2 17 5 13 3 -3 4 -12 1 -19z
m16150 -25 c-3 -10 -5 -4 -5 12 0 17 2 24 5 18 2 -7 2 -21 0 -30z m-16154 -7
c8 5 8 2 0 -7 -15 -16 -17 -33 -3 -24 16 10 12 -15 -5 -31 -13 -14 -15 -10
-14 38 1 29 3 45 6 35 3 -10 10 -14 16 -11z m16148 -21 c15 10 10 -45 -6 -61
-13 -14 -15 -9 -14 43 1 32 4 48 6 35 2 -12 9 -20 14 -17z m-16152 -162 c-10
-12 -10 -16 2 -23 11 -8 12 -13 2 -30 -16 -24 -17 -44 -3 -35 6 3 10 -3 10
-15 0 -12 -4 -18 -10 -15 -6 4 -10 -11 -10 -37 0 -31 3 -39 10 -28 7 11 10 -2
10 -42 0 -40 -4 -58 -12 -59 -10 0 -10 -2 0 -6 6 -2 12 -11 12 -19 0 -8 -6
-14 -12 -14 -8 0 -9 -3 -3 -8 13 -9 18 -135 5 -127 -6 3 -10 -1 -10 -9 0 -9 5
-16 10 -16 6 0 10 -22 10 -50 0 -27 -4 -50 -10 -50 -5 0 -10 -5 -10 -11 0 -5
4 -8 9 -5 5 3 8 -12 7 -34 0 -22 -4 -40 -8 -40 -5 0 -8 -5 -8 -11 0 -5 4 -8 9
-4 6 3 10 -86 10 -227 2 -1883 13 -5752 16 -5813 3 -44 10 -106 17 -138 l11
-57 3158 0 3159 0 0 -58 0 -57 -3912 2 c-2152 1 -3932 2 -3955 2 l-42 1 2 48
2 47 -55 6 c-30 3 319 6 776 7 l830 2 -17 67 c-17 64 -18 243 -18 3193 -1
2021 3 3120 9 3110 8 -13 10 -12 10 3 0 9 -4 17 -10 17 -6 0 -10 60 -9 163 0
100 4 154 9 142 8 -19 9 -19 9 3 1 12 -3 22 -9 22 -16 0 -13 297 3 303 17 5
22 -80 6 -100z m16158 45 c-3 -7 -5 -2 -5 12 0 14 2 19 5 13 2 -7 2 -19 0 -25z
m-6 -98 c-7 -3 -9 -14 -5 -23 3 -10 1 -17 -6 -17 -7 0 -10 12 -8 33 3 35 21
56 26 30 2 -8 -1 -19 -7 -23z m9 -69 c0 -5 -6 -11 -12 -14 -10 -3 -10 -7 1
-20 12 -15 11 -17 -3 -17 -11 0 -16 9 -16 30 0 20 5 30 15 30 8 0 15 -4 15 -9z
m0 -77 c0 -8 -5 -12 -10 -9 -6 4 -8 11 -5 16 9 14 15 11 15 -7z m0 -41 c0 -8
-4 -11 -10 -8 -5 3 -10 1 -10 -4 0 -6 5 -11 10 -11 6 0 10 -5 10 -11 0 -5 -4
-7 -10 -4 -5 3 -10 1 -10 -4 0 -6 5 -11 10 -11 17 0 12 -77 -5 -84 -13 -4 -15
8 -15 79 0 71 2 83 15 79 8 -4 15 -13 15 -21z m-1 -235 c-1 -51 -7 -99 -12
-105 -6 -9 -6 -13 2 -13 6 0 11 -9 11 -20 0 -11 -4 -20 -10 -20 -5 0 -10 -5
-10 -11 0 -5 5 -7 10 -4 6 4 10 -8 10 -29 0 -22 -5 -36 -12 -37 -10 0 -10 -2
-1 -6 18 -7 17 -293 0 -294 -9 0 -9 -2 1 -6 14 -6 17 -53 2 -53 -5 0 -10 -5
-10 -11 0 -5 5 -7 10 -4 7 4 10 -896 11 -2692 0 -3216 2 -3009 -17 -3079 -8
-30 -14 -57 -14 -59 0 -3 375 -6 833 -7 457 -1 805 -4 772 -7 l-60 -6 3 -46 3
-46 -68 -5 c-37 -2 -1816 -4 -3953 -4 l-3885 1 -3 58 -3 57 3160 0 3160 0 12
43 c6 23 15 119 19 212 4 94 8 1515 9 3160 1 2354 4 2991 14 2997 9 6 9 10 -1
16 -22 15 -9 111 16 112 2 0 3 -42 1 -92z m-8692 -6244 l35 -77 31 73 c18 40
37 72 42 71 14 -1 19 -171 5 -171 -6 0 -10 26 -10 62 0 69 -6 69 -35 -4 -11
-29 -25 -53 -31 -55 -6 -2 -24 25 -39 59 l-29 63 -4 -62 c-4 -85 -22 -80 -22
5 0 64 7 112 17 112 2 0 20 -34 40 -76z m509 55 c16 -13 19 -45 4 -54 -7 -4
-5 -14 5 -28 32 -46 6 -77 -66 -77 l-49 0 0 83 c0 46 3 86 6 90 9 9 84 -1 100
-14z m593 -74 c36 -91 34 -85 21 -85 -6 0 -15 11 -20 25 -8 20 -16 25 -45 25
-29 0 -37 -5 -45 -25 -5 -14 -14 -25 -20 -25 -9 0 2 35 49 154 15 38 23 29 60
-69z m-259 33 l0 -52 35 34 c38 37 49 31 14 -7 l-22 -22 27 -36 c15 -19 22
-35 15 -35 -6 0 -20 11 -31 25 -11 14 -24 25 -29 25 -5 0 -9 -11 -9 -25 0 -14
-4 -25 -10 -25 -6 0 -10 35 -10 85 0 50 4 85 10 85 6 0 10 -23 10 -52z m330
42 c0 -5 -4 -10 -10 -10 -5 0 -10 5 -10 10 0 6 5 10 10 10 6 0 10 -4 10 -10z
m-949 -40 c15 -9 19 -22 19 -63 l0 -52 -44 -3 c-38 -2 -45 1 -51 18 -9 28 11
50 47 50 23 0 29 4 26 17 -4 22 -38 30 -49 12 -4 -7 -12 -10 -16 -5 -8 8 23
36 40 36 4 0 17 -5 28 -10z m135 -4 c11 -8 15 -18 10 -23 -5 -4 -11 -2 -13 5
-8 21 -49 14 -60 -10 -22 -50 28 -92 66 -55 10 10 12 8 9 -8 -4 -24 -61 -33
-84 -14 -23 19 -18 85 8 103 28 20 39 20 64 2z m284 -6 c22 -22 26 -60 10 -91
-12 -22 -68 -27 -88 -7 -21 21 -15 85 10 102 30 21 44 20 68 -4z m140 0 c40
-40 15 -110 -41 -110 -54 0 -78 72 -37 110 28 25 52 26 78 0z m390 -45 c0 -37
-4 -65 -10 -65 -11 0 -14 113 -3 123 12 13 13 7 13 -58z m90 55 c0 -5 -6 -10
-14 -10 -18 0 -26 -22 -26 -71 0 -21 -4 -39 -10 -39 -6 0 -10 26 -10 59 0 63
-2 60 53 70 4 0 7 -3 7 -9z m827 -226 l60 -7 -13 -26 c-8 -15 -12 -42 -9 -67
4 -33 2 -43 -12 -50 -22 -11 -2850 -17 -2953 -7 l-75 8 -1 55 c-1 30 -5 63 -9
72 -6 14 1 17 42 21 84 6 2907 7 2970 1z"/>
<path d="M16704 10717 c-3 -8 -4 -45 -2 -83 2 -56 6 -69 21 -72 14 -3 17 4 17
50 0 30 5 59 12 66 7 7 36 12 65 12 46 0 53 3 53 20 0 18 -7 20 -80 20 -58 0
-82 -4 -86 -13z"/>
<path d="M16762 10588 l3 -83 83 -3 82 -3 0 86 0 85 -85 0 -86 0 3 -82z"/>
<path d="M6518 10709 c-15 -8 -18 -25 -18 -97 l0 -87 55 0 55 0 0 86 c0 82 -1
86 -25 97 -31 14 -45 15 -67 1z"/>
<path d="M6653 10710 c-21 -9 -23 -15 -23 -97 l0 -88 55 0 55 0 0 88 c0 85 -1
88 -26 97 -30 12 -32 12 -61 0z"/>
<path d="M9597 10664 c-16 -16 -7 -44 14 -44 15 0 20 5 17 22 -3 22 -19 33
-31 22z"/>
<path d="M10414 10606 c-9 -23 0 -51 16 -51 10 0 15 10 15 29 0 32 -21 47 -31
22z"/>
<path d="M7697 10610 c-4 -15 0 -20 13 -20 13 0 17 5 13 20 -3 11 -9 20 -13
20 -4 0 -10 -9 -13 -20z"/>
<path d="M7597 10600 c-3 -12 0 -20 8 -20 8 0 11 8 8 20 -3 11 -7 20 -8 20 -1
0 -5 -9 -8 -20z"/>
<path d="M9790 10580 c-12 -7 -12 -12 -2 -22 10 -10 15 -10 22 2 19 29 9 39
-20 20z"/>
<path d="M10047 10614 c-11 -11 -8 -52 4 -60 6 -3 18 1 27 10 13 12 14 21 6
33 -12 20 -27 26 -37 17z"/>
<path d="M10304 10606 c-9 -23 0 -51 17 -54 19 -4 32 23 24 49 -7 22 -33 25
-41 5z"/>
<path d="M10633 10575 c-3 -9 -3 -18 0 -21 9 -9 27 6 27 22 0 19 -19 18 -27
-1z"/>
<path d="M15225 9508 c-4 -10 -4 -26 0 -35 8 -17 8 -17 12 0 3 9 3 25 0 35 -4
16 -4 16 -12 0z"/>
<path d="M15260 9404 c0 -14 4 -23 10 -19 6 3 10 15 10 26 0 10 -4 19 -10 19
-5 0 -10 -12 -10 -26z"/>
<path d="M13578 9460 c-14 -34 -14 -35 10 -38 33 -5 35 0 19 39 l-14 34 -15
-35z"/>
<path d="M15501 9507 c-18 -22 -23 -70 -12 -100 24 -63 74 -38 74 37 0 64 -33
97 -62 63z"/>
<path d="M15820 9501 c-5 -11 -10 -36 -10 -56 0 -46 15 -75 40 -75 25 0 40 29
40 75 0 46 -15 75 -40 75 -11 0 -24 -9 -30 -19z"/>
<path d="M15960 9501 c-5 -11 -10 -36 -10 -56 0 -46 15 -75 40 -75 25 0 40 29
40 75 0 46 -15 75 -40 75 -11 0 -24 -9 -30 -19z"/>
<path d="M13932 9458 c-26 -26 -8 -88 25 -88 23 0 38 46 25 75 -13 27 -31 32
-50 13z"/>
<path d="M16718 9445 c-16 -36 4 -78 35 -73 24 3 33 33 23 74 -8 32 -43 32
-58 -1z"/>
<path d="M16857 9463 c-12 -12 -7 -41 7 -46 19 -8 38 16 30 37 -6 16 -25 21
-37 9z"/>
<path d="M16845 9360 c-4 -7 -3 -16 3 -22 14 -14 57 -6 57 12 0 18 -50 26 -60
10z"/>
<path d="M16970 9446 c-14 -38 3 -78 33 -74 19 3 22 9 22 48 0 39 -3 45 -22
48 -17 3 -26 -3 -33 -22z"/>
<path d="M3271 9406 c-19 -23 -10 -61 14 -61 14 0 21 8 23 26 4 33 -20 56 -37
35z"/>
<path d="M2980 9420 c0 -33 19 -40 40 -15 16 20 5 45 -20 45 -16 0 -20 -7 -20
-30z"/>
<path d="M3570 9375 c0 -34 1 -35 40 -35 46 0 54 20 15 38 -14 6 -25 16 -25
22 0 5 -7 10 -15 10 -10 0 -15 -11 -15 -35z"/>
<path d="M4180 9425 c0 -28 21 -33 40 -10 15 18 5 35 -21 35 -14 0 -19 -7 -19
-25z"/>
<path d="M4501 9406 c-19 -23 -10 -61 14 -61 14 0 21 8 23 26 4 33 -20 56 -37
35z"/>
<path d="M4394 9396 c-9 -24 0 -51 18 -54 19 -4 35 38 23 57 -9 16 -35 13 -41
-3z"/>
<path d="M4680 9375 c0 -34 1 -35 39 -35 51 0 60 15 21 35 -16 8 -30 20 -30
25 0 6 -7 10 -15 10 -10 0 -15 -11 -15 -35z"/>
<path d="M3160 9380 c0 -34 26 -52 41 -29 15 24 6 54 -18 57 -20 3 -23 -1 -23
-28z"/>
<path d="M4290 9400 c0 -5 9 -10 20 -10 11 0 20 5 20 10 0 6 -9 10 -20 10 -11
0 -20 -4 -20 -10z"/>
<path d="M5230 9410 c-19 -12 -7 -22 21 -18 19 2 20 5 8 15 -9 7 -20 9 -29 3z"/>
<path d="M5745 9361 c-3 -5 -1 -12 5 -16 12 -7 30 2 30 16 0 12 -27 12 -35 0z"/>
<path d="M6142 9408 c-6 -6 -12 -25 -12 -40 0 -21 5 -28 20 -28 11 0 20 4 20
9 0 5 2 15 5 23 3 7 0 21 -7 31 -11 14 -16 15 -26 5z"/>
<path d="M6341 9406 c-19 -23 -10 -61 14 -61 14 0 21 8 23 26 4 33 -20 56 -37
35z"/>
<path d="M6234 9396 c-9 -24 0 -51 18 -54 19 -4 35 38 23 57 -9 16 -35 13 -41
-3z"/>
<path d="M7190 9405 c-18 -22 -8 -60 15 -60 15 0 21 8 23 31 3 35 -19 52 -38
29z"/>
<path d="M7465 9359 c-4 -6 -4 -13 -1 -16 8 -8 36 5 36 17 0 13 -27 13 -35 -1z"/>
<path d="M8465 9359 c-4 -6 -4 -13 -1 -16 8 -8 36 5 36 17 0 13 -27 13 -35 -1z"/>
<path d="M8640 9405 c-11 -13 -8 -15 15 -15 23 0 26 2 15 15 -7 8 -14 15 -15
15 -1 0 -8 -7 -15 -15z"/>
<path d="M8740 9405 c-11 -13 -8 -15 15 -15 23 0 26 2 15 15 -7 8 -14 15 -15
15 -1 0 -8 -7 -15 -15z"/>
<path d="M8670 8315 c-52 -7 -144 -18 -205 -24 -60 -7 -141 -17 -180 -22 -38
-5 -113 -14 -165 -19 -52 -5 -194 -21 -315 -35 -121 -15 -260 -30 -310 -36
-49 -5 -124 -13 -165 -19 -41 -5 -118 -14 -170 -20 -52 -5 -153 -17 -225 -25
-71 -8 -173 -20 -225 -25 -52 -6 -147 -17 -210 -25 -63 -7 -162 -19 -220 -25
-58 -6 -157 -17 -220 -25 -63 -7 -160 -19 -215 -25 -55 -6 -137 -16 -182 -22
l-83 -10 0 -533 0 -533 -37 -6 c-21 -4 -198 -24 -393 -46 -195 -22 -372 -42
-392 -46 l-38 -6 0 -544 c0 -299 0 -547 1 -551 0 -5 37 -22 82 -40 45 -17 265
-105 490 -196 224 -91 407 -163 407 -160 0 2 -84 106 -186 230 -156 191 -183
228 -167 234 10 3 65 11 123 17 94 10 383 43 1020 116 118 14 276 32 350 40
74 9 214 25 310 36 96 11 274 31 395 45 300 34 315 35 353 41 l32 5 0 535 c0
419 3 536 13 539 6 2 59 9 117 14 108 11 339 37 587 67 l141 17 5 51 c3 28 6
275 7 549 1 476 1 497 -17 496 -10 -1 -61 -7 -113 -14z m-145 -195 l0 -65 -82
-9 -83 -8 0 -213 0 -213 -77 -9 c-43 -6 -81 -8 -85 -6 -5 2 -8 98 -8 212 l0
207 -52 -7 c-112 -16 -108 -18 -108 56 0 76 -23 66 205 90 88 10 183 21 210
25 81 13 80 13 80 -60z m-553 13 c30 -27 22 -95 -20 -193 l-37 -85 -53 -3
c-36 -2 -52 0 -47 7 3 6 12 35 20 63 13 50 12 54 -8 76 -23 25 -27 75 -7 112
25 47 111 60 152 23z m-232 -317 l0 -274 -22 -6 c-13 -3 -45 -6 -73 -5 l-50 0
-112 124 -113 125 0 -139 c0 -158 8 -145 -97 -156 l-63 -7 0 280 0 280 67 7
67 7 36 -39 c19 -21 72 -79 117 -128 l83 -90 0 142 c0 162 -9 149 103 152 l57
1 0 -274z m-767 174 c51 -15 116 -75 140 -130 27 -61 27 -170 -1 -233 -31 -69
-102 -140 -175 -173 -52 -23 -75 -28 -147 -28 -70 0 -93 4 -134 24 -87 44
-135 124 -136 227 -1 225 224 380 453 313z m-638 -94 c108 -50 157 -158 131
-291 -21 -105 -109 -195 -226 -228 -45 -13 -283 -47 -328 -47 -9 0 -12 69 -12
280 l0 280 23 1 c12 0 65 6 117 13 157 22 237 20 295 -8z m1905 -380 c0 -34 0
-34 -57 -40 -81 -10 -93 -15 -93 -37 0 -18 5 -19 65 -13 l65 7 0 -37 c0 -34
-2 -36 -34 -36 -69 0 -96 -11 -96 -37 0 -21 3 -24 28 -19 15 3 48 8 75 12 l47
6 0 -40 0 -40 -77 -6 c-43 -4 -97 -9 -120 -13 l-43 -5 0 155 0 155 73 10 c39
5 93 10 120 11 l47 1 0 -34z m-299 -151 c-1 -82 -3 -150 -4 -151 -1 -1 -21 -4
-44 -8 l-43 -6 0 55 0 55 -50 0 -50 0 0 -55 c0 -61 -13 -75 -69 -75 l-31 0 0
154 0 153 42 6 c23 3 46 3 50 1 4 -3 8 -29 8 -58 0 -52 0 -53 28 -49 75 12 72
9 72 67 0 58 8 66 69 62 l23 -1 -1 -150z m-321 81 c0 -32 -3 -35 -40 -41 l-39
-7 -3 -116 -3 -117 -47 -3 -48 -3 0 110 0 111 -45 0 c-45 0 -45 0 -45 35 0 38
1 39 135 54 134 16 135 16 135 -23z m-421 -32 c6 -5 4 -21 -4 -40 -13 -31 -14
-31 -52 -22 -67 18 -128 -25 -62 -43 13 -4 38 -7 55 -8 45 -1 84 -35 84 -73 0
-75 -61 -118 -168 -118 -79 0 -97 9 -88 41 11 45 18 48 63 36 28 -7 52 -8 70
-2 50 18 29 37 -60 50 -49 8 -77 36 -77 78 0 71 74 120 173 114 31 -2 61 -8
66 -13z m-285 -27 c17 -13 17 -16 3 -44 -15 -29 -18 -30 -66 -25 -33 3 -56 0
-66 -8 -23 -19 -11 -27 50 -35 96 -12 135 -73 91 -141 -33 -49 -129 -75 -204
-54 -46 12 -47 13 -31 58 10 28 13 30 39 21 42 -15 114 -8 118 12 2 13 -8 18
-45 24 -77 11 -110 29 -118 63 -13 61 21 105 105 135 29 11 106 7 124 -6z
m-266 -170 c3 -161 6 -151 -60 -161 l-38 -5 0 154 c0 167 -1 165 60 162 l35
-2 3 -148z m-150 -19 l-3 -153 -37 -3 -37 -3 -3 73 -3 73 -35 -62 c-45 -82
-71 -85 -115 -15 l-30 47 -5 -70 -5 -70 -43 -3 -43 -3 3 153 3 153 40 2 c40 3
40 2 88 -74 l49 -77 51 92 c50 91 51 92 89 92 l39 0 -3 -152z m672 -212 c0 -8
-10 -16 -22 -18 -20 -3 -23 -10 -26 -60 -3 -50 -6 -58 -22 -58 -17 0 -20 7
-20 55 0 48 -2 55 -20 55 -22 0 -28 25 -7 33 6 3 36 6 65 6 39 1 52 -3 52 -13z
m-146 -28 c8 -13 7 -26 -2 -50 -8 -21 -8 -36 -2 -42 16 -16 12 -26 -11 -26
-12 0 -27 7 -34 17 -13 18 -35 10 -35 -13 0 -8 -9 -14 -20 -14 -18 0 -20 7
-20 68 0 38 3 72 7 76 14 14 106 2 117 -16z m-167 -59 c17 -35 32 -67 32 -71
2 -14 -47 -8 -52 5 -7 18 -67 10 -67 -9 0 -8 -10 -14 -25 -14 l-25 0 21 51
c52 132 67 137 116 38z m-127 41 c0 -13 -7 -20 -20 -20 -18 0 -20 -7 -20 -60
0 -57 -1 -60 -25 -60 -24 0 -25 3 -25 54 0 49 -2 54 -25 58 -14 3 -25 1 -25
-3 0 -5 -13 -9 -28 -9 -44 0 -47 -13 -5 -25 41 -11 56 -43 33 -70 -15 -18 -71
-29 -99 -20 -32 10 -14 35 25 35 19 0 34 5 34 10 0 6 -11 10 -24 10 -24 0 -56
23 -56 40 0 4 8 18 19 31 14 17 30 23 67 25 41 3 164 19 172 23 1 0 2 -8 2
-19z m-330 -39 c0 -15 -8 -21 -32 -23 -17 -2 -33 -8 -35 -14 -2 -7 8 -9 28 -6
26 4 30 2 27 -14 -2 -12 -13 -20 -31 -22 -39 -5 -33 -22 8 -22 48 0 47 -25 -2
-34 -85 -14 -84 -15 -81 67 l3 72 40 6 c70 11 75 10 75 -10z m-130 -17 c0 -9
-9 -18 -20 -21 -17 -4 -20 -14 -20 -58 0 -44 -3 -54 -19 -58 -28 -7 -31 -1
-31 59 0 47 -2 52 -20 47 -15 -4 -20 0 -20 15 0 22 18 28 93 31 28 1 37 -3 37
-15z m-157 -16 c9 -7 20 -27 23 -45 5 -27 1 -37 -24 -63 -30 -30 -80 -40 -109
-22 -20 13 -33 60 -23 86 18 49 93 73 133 44z m-153 -79 c0 -67 -1 -69 -25
-69 -21 0 -25 5 -25 28 l-1 27 -15 -27 c-18 -34 -28 -35 -48 -7 -14 21 -14 21
-18 -7 -2 -21 -9 -30 -26 -32 -22 -3 -23 -2 -20 70 4 88 23 101 60 44 13 -20
26 -36 29 -36 4 0 12 14 19 30 14 33 48 63 62 54 4 -3 8 -36 8 -75z m-200 41
c0 -13 -7 -20 -19 -20 -27 0 -51 -10 -51 -22 0 -5 13 -7 30 -3 26 6 30 4 30
-14 0 -17 -6 -21 -30 -21 -16 0 -30 -4 -30 -10 0 -5 16 -10 36 -10 28 0 35 -3
32 -17 -2 -14 -15 -19 -56 -21 l-52 -3 0 70 c0 77 -2 75 75 84 17 2 31 5 33 6
1 0 2 -8 2 -19z m-138 -35 c9 -19 8 -29 -5 -48 -14 -22 -14 -27 -1 -46 14 -20
14 -21 -9 -21 -14 0 -30 7 -37 15 -17 21 -30 19 -30 -5 0 -15 -7 -20 -25 -20
-24 0 -25 2 -25 68 0 38 3 72 7 75 3 4 30 7 60 7 47 0 55 -3 65 -25z m1868
-125 l0 -150 -24 0 c-13 0 -31 -3 -40 -6 -14 -5 -16 5 -16 72 l0 79 -38 -65
c-50 -85 -68 -88 -113 -18 l-34 53 -3 -73 c-2 -60 -6 -72 -20 -72 -9 0 -27 -3
-39 -6 l-23 -6 0 156 0 156 38 0 c34 0 40 -4 69 -52 18 -29 41 -64 51 -77 l19
-23 43 78 c56 103 57 104 96 104 l34 0 0 -150z m-449 -27 c76 -160 77 -167 23
-171 -35 -3 -42 0 -52 23 -12 27 -38 31 -102 18 -24 -4 -36 -14 -43 -34 -6
-15 -20 -30 -31 -33 -36 -10 -66 -7 -65 7 0 6 28 77 62 157 68 157 57 145 140
159 4 0 35 -56 68 -126z m-316 57 c41 -38 38 -109 -5 -155 l-20 -22 30 -39
c28 -35 30 -39 13 -45 -45 -18 -77 -10 -102 27 -34 49 -64 44 -71 -11 -5 -39
-6 -40 -47 -43 l-43 -3 0 150 0 150 33 5 c117 20 180 16 212 -14z m-335 -16
c46 -19 49 -32 16 -63 -20 -19 -27 -20 -49 -10 -35 16 -93 3 -112 -24 -8 -12
-15 -41 -15 -64 0 -37 4 -44 31 -58 19 -10 41 -14 60 -10 27 6 29 10 29 51 0
35 3 44 18 44 9 0 27 3 40 6 23 6 23 5 20 -62 l-3 -69 -45 -23 c-36 -19 -57
-23 -108 -20 -54 4 -67 8 -94 36 -27 26 -32 40 -35 89 -6 90 32 146 123 178
51 19 75 18 124 -1z m-343 -54 c88 -53 81 -185 -13 -257 -51 -38 -147 -45
-197 -14 -76 47 -81 180 -11 242 59 52 162 65 221 29z m-352 -30 c38 -14 59
-69 45 -120 -6 -22 -20 -46 -31 -54 -20 -14 -20 -14 11 -57 l31 -44 -43 -8
c-41 -7 -45 -6 -73 28 -18 21 -39 35 -52 35 -20 0 -23 -5 -23 -39 0 -35 -3
-39 -31 -45 -63 -12 -60 -20 -57 147 l3 152 50 6 c83 10 142 10 170 -1z m-319
-35 c99 -41 61 -191 -54 -210 -70 -12 -72 -14 -72 -56 l0 -39 -45 0 -45 0 0
149 0 150 58 6 c31 3 64 8 72 9 33 7 52 5 86 -9z m2441 -182 c-4 -60 -10 -114
-12 -120 -2 -8 -21 -13 -43 -13 l-39 0 -7 61 c-3 34 -6 86 -6 115 l0 53 38 4
c87 9 79 20 69 -100z m-157 48 c0 -43 2 -42 -122 -57 -56 -6 -58 -7 -58 -36 0
-27 3 -29 28 -24 15 3 51 8 80 11 l52 7 0 -41 c0 -44 7 -41 -112 -56 -45 -6
-48 -8 -48 -36 l0 -30 58 6 c31 3 74 8 95 11 l38 6 -3 -44 -3 -43 -100 -12
c-55 -6 -121 -14 -147 -17 l-48 -7 0 185 0 185 33 5 c50 8 189 23 225 25 31 1
32 0 32 -38z m-360 -185 l0 -184 -37 -5 c-37 -5 -41 -2 -120 79 l-83 85 0 -91
c0 -99 3 -94 -67 -104 l-43 -6 0 184 c0 202 -2 197 63 195 27 0 43 -12 102
-79 39 -43 73 -79 78 -79 4 -1 7 39 7 88 0 98 0 97 68 100 l32 1 0 -184z
m-420 -45 c0 -99 -3 -182 -7 -184 -5 -3 -28 -7 -53 -8 l-45 -4 -3 179 c-2 137
1 181 10 188 7 4 32 8 56 8 l42 0 0 -179z m-320 8 l0 -141 90 7 90 7 0 -41 c0
-23 -3 -41 -7 -41 -5 0 -55 -7 -113 -15 -58 -8 -117 -15 -132 -15 l-28 0 0
184 0 185 38 4 c20 2 43 4 50 5 9 2 12 -32 12 -139z m-227 74 c47 -28 72 -78
71 -143 -2 -125 -80 -188 -259 -209 -49 -6 -96 -11 -102 -11 -10 0 -13 43 -13
184 l0 184 68 7 c37 3 74 8 82 10 33 8 123 -5 153 -22z m-481 -43 c28 -50 150
-322 146 -325 -2 -1 -26 -5 -55 -9 l-52 -6 -13 36 c-12 35 -13 36 -58 29 -104
-14 -108 -16 -121 -48 -7 -18 -18 -35 -23 -39 -16 -11 -98 -10 -94 1 2 5 37
91 78 190 58 139 79 181 95 184 39 9 88 2 97 -13z m-292 -49 c0 -44 0 -44
-117 -56 -61 -7 -63 -8 -63 -36 0 -29 1 -29 43 -24 23 3 59 8 80 11 l37 4 0
-39 c0 -43 -10 -51 -65 -51 -18 0 -47 -3 -64 -6 -26 -6 -31 -11 -31 -37 l0
-30 63 7 c34 4 77 9 95 13 32 5 32 5 32 -35 0 -23 -3 -43 -7 -45 -5 -3 -57
-10 -118 -16 -60 -7 -125 -14 -142 -17 l-33 -6 0 185 0 185 103 12 c56 6 107
13 112 15 6 2 25 4 43 4 31 1 32 0 32 -38z m2244 23 c25 -10 21 -70 -6 -88
-43 -30 -90 -10 -90 39 0 44 47 68 96 49z m-2666 -65 c124 -61 102 -260 -36
-321 -32 -14 -205 -46 -259 -48 -2 0 -3 83 -3 184 l0 185 43 5 c84 11 103 13
156 15 38 1 68 -6 99 -20z"/>
<path d="M6798 7858 c-77 -21 -132 -121 -109 -199 22 -74 87 -110 160 -89 52
15 77 35 100 83 61 126 -23 241 -151 205z"/>
<path d="M6073 7773 c-10 -3 -13 -43 -13 -150 l0 -145 28 6 c15 3 47 8 72 12
80 12 129 55 145 131 9 45 -13 110 -46 134 -21 15 -43 19 -101 18 -40 0 -79
-3 -85 -6z"/>
<path d="M6954 6942 c-5 -4 -10 -13 -12 -20 -3 -17 40 -12 45 4 5 14 -20 25
-33 16z"/>
<path d="M6796 6895 c-3 -9 0 -15 9 -15 9 0 12 6 9 15 -4 8 -7 15 -9 15 -2 0
-5 -7 -9 -15z"/>
<path d="M6031 6826 c-21 -26 -9 -51 24 -51 27 0 30 3 30 30 0 23 -5 31 -21
33 -11 2 -26 -4 -33 -12z"/>
<path d="M5547 6784 c-14 -15 -6 -34 14 -34 14 0 19 5 17 17 -3 18 -20 27 -31
17z"/>
<path d="M6921 6629 c-15 -45 -14 -49 13 -49 33 0 38 11 23 49 -14 39 -22 39
-36 0z"/>
<path d="M6598 6652 c-25 -3 -28 -7 -28 -43 0 -36 2 -39 28 -39 38 0 74 27 70
52 -3 24 -31 35 -70 30z"/>
<path d="M5910 6567 c-51 -26 -65 -93 -25 -132 33 -33 70 -32 106 4 70 71 6
172 -81 128z"/>
<path d="M5567 6533 c-4 -3 -7 -24 -7 -45 0 -41 14 -48 63 -29 53 20 40 81
-17 81 -18 0 -36 -3 -39 -7z"/>
<path d="M5250 6460 c0 -38 2 -40 30 -40 41 0 74 33 60 60 -8 15 -21 20 -50
20 -40 0 -40 0 -40 -40z"/>
<path d="M6143 6213 c-9 -3 -13 -33 -13 -99 l0 -94 28 0 c86 0 142 47 142 118
0 51 -37 82 -97 81 -26 0 -54 -3 -60 -6z"/>
<path d="M5771 6103 c-8 -21 -16 -44 -18 -50 -4 -9 6 -13 29 -13 19 0 37 3 41
6 6 7 -24 94 -33 94 -3 0 -12 -17 -19 -37z"/>
<path d="M4950 5979 l0 -102 41 7 c85 14 119 47 119 120 0 51 -34 76 -103 76
l-57 0 0 -101z"/>
<path d="M12830 8232 c-19 -9 -43 -32 -53 -50 -18 -31 -19 -56 -18 -398 1
-200 -1 -397 -5 -438 -6 -71 -7 -73 -38 -84 -41 -15 -43 -15 -43 3 0 8 9 15
19 15 12 0 18 7 18 24 0 40 -11 56 -37 56 -24 0 -25 -2 -20 -43 l6 -43 -53
-10 -53 -9 -12 43 c-9 33 -15 43 -27 38 -9 -3 -20 -6 -25 -6 -12 0 -12 -42 1
-74 8 -23 7 -26 -18 -32 -15 -3 -39 -9 -53 -14 -36 -11 -44 -3 -57 60 -9 48
-9 57 6 68 34 26 206 56 320 57 l62 0 0 145 c0 137 -6 173 -26 171 -22 -2 -51
14 -75 40 -33 37 -56 39 -33 4 9 -14 15 -25 13 -25 -60 -7 -259 -38 -288 -46
-22 -7 -23 -5 -17 19 8 35 -11 36 -24 2 -5 -14 -13 -24 -18 -23 -5 2 -20 -10
-34 -26 l-25 -30 -34 64 c-30 56 -39 65 -84 82 -48 19 -53 19 -111 3 -140 -38
-222 -91 -249 -161 -17 -46 -17 -48 5 -113 36 -102 147 -358 192 -441 57 -106
127 -197 166 -216 29 -13 43 -14 100 -4 37 6 73 16 80 23 15 12 28 -1 39 -43
3 -14 17 -47 30 -73 27 -55 91 -102 153 -112 34 -6 156 6 216 21 24 6 24 6 24
-78 0 -64 5 -93 20 -123 11 -22 20 -41 20 -42 0 -2 -56 -3 -125 -3 -101 0
-123 -3 -119 -14 3 -8 -4 -16 -20 -20 -14 -3 -30 -15 -36 -26 -13 -25 -37 -26
-43 -2 -3 9 -5 -5 -6 -33 -1 -27 -13 -147 -27 -265 -30 -249 -35 -301 -28
-279 5 18 44 33 44 18 0 -5 -1 -11 -2 -13 -5 -7 35 -46 47 -46 7 0 15 -9 18
-20 4 -15 -1 -22 -17 -26 -24 -6 -76 11 -89 29 -5 7 -7 2 -4 -13 3 -14 9 -56
12 -95 9 -85 24 -112 69 -120 19 -4 44 -18 57 -31 20 -21 32 -24 92 -24 58 0
75 4 101 24 l31 24 490 3 490 4 32 -22 c45 -33 156 -33 190 -1 13 12 38 27 56
33 36 11 50 44 82 194 l18 82 -27 117 c-44 186 -73 311 -92 392 -9 41 -20 82
-25 90 -4 9 -39 28 -77 43 -80 31 -175 37 -208 12 -10 -8 -27 -15 -37 -15 -16
0 -15 3 5 31 22 29 23 42 26 205 3 156 5 174 20 173 11 0 12 -3 5 -6 -14 -5
-17 -32 -5 -49 4 -6 18 -14 32 -18 22 -6 22 -5 -4 10 -27 15 -28 18 -13 29 13
9 35 9 101 -1 46 -6 93 -17 105 -23 27 -15 43 -45 30 -58 -13 -13 102 -14 118
-1 11 9 23 45 59 170 4 15 9 15 59 -3 66 -23 138 -24 174 -3 45 27 123 169
240 441 76 177 91 223 91 294 0 54 -2 58 -46 99 -82 75 -240 127 -300 99 -25
-13 -93 -89 -119 -134 -10 -17 -13 -17 -54 4 -71 37 -188 62 -291 64 -126 3
-141 -6 -174 -110 l-25 -78 6 96 c4 60 2 108 -5 128 -6 18 -14 116 -18 219 -5
144 -10 192 -22 211 -32 48 -56 51 -424 51 -307 0 -347 -2 -378 -18z m660 -52
c0 -5 -8 -10 -17 -10 -15 0 -16 2 -3 10 19 12 20 12 20 0z m95 0 c-3 -5 -13
-10 -21 -10 -8 0 -14 5 -14 10 0 6 9 10 21 10 11 0 17 -4 14 -10z m-314 -114
c6 -6 9 -3 9 7 0 9 7 17 15 17 8 0 15 -8 15 -18 0 -14 -9 -19 -42 -21 -23 -1
-45 -4 -49 -7 -4 -2 -12 4 -18 13 -6 10 -11 12 -11 6 0 -20 -20 -15 -21 5 -1
16 -2 16 -6 0 -3 -11 -14 -18 -29 -18 -18 0 -24 5 -24 23 0 18 2 19 10 7 7
-10 13 -11 18 -4 4 5 27 11 52 12 30 1 40 -2 30 -8 -18 -11 -6 -25 15 -17 8 4
16 17 16 29 1 21 2 21 6 3 3 -11 9 -24 14 -29z m323 3 c-3 -5 1 -9 8 -9 10 0
9 -3 -2 -9 -18 -12 -45 23 -35 47 6 16 8 15 20 -2 8 -10 12 -23 9 -27z m-208
-158 c66 -28 93 -51 58 -47 -10 0 -21 -11 -28 -30 -6 -18 -16 -29 -24 -27 -8
3 -10 9 -4 16 5 7 12 20 15 30 5 13 1 17 -19 17 -24 0 -26 -3 -22 -35 3 -30 1
-35 -17 -35 -11 0 -38 -3 -59 -7 -27 -4 -37 -3 -32 5 3 5 2 22 -4 36 -18 48
-70 23 -70 -33 0 -16 -6 -21 -25 -21 -27 0 -33 18 -13 38 9 9 8 12 -4 12 -27
0 -48 -11 -48 -26 0 -8 -7 -14 -15 -14 -9 0 -14 8 -12 23 2 19 -3 22 -41 25
-28 2 -42 7 -39 15 6 19 48 37 86 37 19 0 50 6 69 13 28 10 36 10 39 0 7 -20
51 -15 63 6 9 18 6 20 -27 24 -22 2 -7 4 34 5 59 2 83 -3 139 -27z m612 -233
c7 -7 12 -16 12 -20 0 -11 -52 -10 -70 2 -13 9 -13 11 0 20 20 13 44 12 58 -2z
m-1998 -73 c0 -14 -29 -35 -49 -35 -12 0 -15 33 -4 43 13 13 53 7 53 -8z m360
-34 c0 -6 12 -6 32 0 40 11 38 11 38 0 0 -5 -16 -12 -35 -15 -19 -4 -35 -12
-36 -19 0 -9 -2 -9 -6 1 -2 6 -9 10 -14 6 -5 -3 -9 2 -9 11 0 9 -4 14 -10 10
-5 -3 -7 -13 -4 -23 5 -14 4 -14 -4 -3 -6 8 -8 20 -5 28 6 15 53 18 53 4z
m863 -12 c76 -1 141 2 144 5 11 11 68 6 93 -9 22 -13 8 -14 -138 -15 -116 0
-161 -3 -156 -11 4 -8 1 -8 -12 -1 -11 5 -59 10 -109 11 -49 1 -92 4 -94 7
-14 14 30 24 79 20 30 -3 117 -6 193 -7z m-503 -19 c-19 -13 -30 -13 -30 0 0
6 10 10 23 10 18 0 19 -2 7 -10z m1717 -27 c-9 -8 -48 8 -42 18 4 5 14 5 26
-2 12 -6 18 -13 16 -16z m-1877 -4 c0 -5 -4 -9 -10 -9 -5 0 -10 7 -10 16 0 8
5 12 10 9 6 -3 10 -10 10 -16z m50 11 c-19 -13 -30 -13 -30 0 0 6 10 10 23 10
18 0 19 -2 7 -10z m720 -4 c-4 -4 -21 -4 -37 2 -28 10 -28 10 9 8 21 0 33 -5
28 -10z m-820 -5 c0 -12 -20 -25 -27 -18 -7 7 6 27 18 27 5 0 9 -4 9 -9z m-47
-63 c3 -12 4 -25 1 -30 -7 -11 -54 -10 -54 1 0 5 -3 16 -6 24 -4 11 2 17 18
20 13 2 26 5 29 6 4 0 9 -9 12 -21z m-95 -17 c4 -26 -13 -42 -35 -34 -14 5
-18 45 -6 57 14 14 38 0 41 -23z m2002 -56 c0 -8 -6 -15 -14 -15 -17 0 -28 14
-19 24 12 12 33 6 33 -9z m-1038 -23 c5 -5 -50 -8 -122 -8 -72 -1 -127 3 -123
7 4 4 22 9 38 11 52 6 198 -1 207 -10z m545 2 c-3 -3 -12 -4 -19 -1 -8 3 -5 6
6 6 11 1 17 -2 13 -5z m408 -103 c-3 -5 -1 -12 4 -15 5 -4 12 -2 16 4 9 15 25
12 25 -5 0 -17 -18 -19 -54 -5 -31 11 -34 30 -5 30 11 0 18 -4 14 -9z m-1330
-50 c4 -15 3 -21 -3 -17 -5 3 -12 17 -15 32 -5 30 8 20 18 -15z m-62 -8 c-7
-2 -13 -18 -13 -33 0 -26 4 -29 38 -33 l37 -4 -40 1 c-34 1 -40 5 -43 24 -5
31 4 52 20 51 10 0 10 -2 1 -6z m37 -27 c0 -3 -4 -8 -10 -11 -5 -3 -10 -1 -10
4 0 6 5 11 10 11 6 0 10 -2 10 -4z m580 -6 c0 -5 -4 -10 -10 -10 -5 0 -10 5
-10 10 0 6 5 10 10 10 6 0 10 -4 10 -10z m-870 -12 c0 -4 -4 -8 -9 -8 -6 0
-12 4 -15 8 -3 5 1 9 9 9 8 0 15 -4 15 -9z m-50 -10 c0 -4 -9 -8 -21 -8 -11 0
-18 4 -15 8 3 5 12 9 21 9 8 0 15 -4 15 -9z m-70 -4 c0 -10 -41 -23 -54 -18
-27 10 -18 19 19 20 19 0 35 -1 35 -2z m1725 -5 c11 -17 0 -20 -21 -4 -17 13
-17 14 -2 15 9 0 20 -5 23 -11z m-722 -6 c-13 -2 -33 -2 -45 0 -13 2 -3 4 22
4 25 0 35 -2 23 -4z m-300 -20 c-7 -2 -19 -2 -25 0 -7 3 -2 5 12 5 14 0 19 -2
13 -5z m-43 -93 c0 -5 -5 -10 -11 -10 -5 0 -7 5 -4 10 3 6 8 10 11 10 2 0 4
-4 4 -10z m89 -16 c22 -28 27 -60 11 -84 -5 -9 -5 -19 1 -26 7 -8 0 -13 -22
-18 -18 -3 -34 -4 -36 -2 -8 8 18 56 29 54 17 -4 23 49 7 68 -6 8 -26 18 -43
23 l-31 9 32 1 c23 1 37 -6 52 -25z m-114 -14 c-3 -5 -11 -10 -16 -10 -6 0 -7
5 -4 10 3 6 11 10 16 10 6 0 7 -4 4 -10z m-18 -42 c-3 -8 -6 -5 -6 6 -1 11 2
17 5 13 3 -3 4 -12 1 -19z m-847 3 c0 -5 3 -16 6 -25 7 -18 -43 -46 -84 -46
-37 0 -65 28 -36 36 10 3 37 13 59 24 47 22 55 23 55 11z m1918 -22 c29 -8 40
-15 33 -22 -12 -12 -101 19 -101 35 0 5 6 7 13 4 6 -2 31 -10 55 -17z m-1053
-9 c3 -5 2 -10 -4 -10 -5 0 -13 5 -16 10 -3 6 -2 10 4 10 5 0 13 -4 16 -10z
m25 -30 c0 -5 -2 -10 -4 -10 -3 0 -8 5 -11 10 -3 6 -1 10 4 10 6 0 11 -4 11
-10z m665 -80 c27 -7 27 -8 5 -8 -14 0 -38 4 -55 8 -27 7 -27 8 -5 8 14 0 39
-4 55 -8z m133 -32 c23 -5 42 -12 42 -14 0 -8 -73 8 -105 23 -24 11 -25 13 -5
8 14 -4 44 -11 68 -17z m-1027 -18 c14 -8 19 -21 19 -55 0 -25 -2 -45 -4 -45
-2 0 -11 -3 -20 -6 -12 -5 -16 0 -16 21 0 21 4 26 16 21 27 -11 13 47 -16 61
-14 7 -19 13 -12 13 7 0 22 -5 33 -10z m562 3 c-7 -2 -19 -2 -25 0 -7 3 -2 5
12 5 14 0 19 -2 13 -5z m-623 -18 c-7 -8 -17 -15 -22 -15 -6 0 -5 7 2 15 7 8
17 15 22 15 6 0 5 -7 -2 -15z m-140 -18 c0 -24 -199 -52 -207 -29 -3 8 6 12
29 12 18 1 60 7 93 14 79 18 85 18 85 3z m776 -12 c33 -17 33 -17 -21 -20 -50
-3 -64 4 -40 22 23 16 26 16 61 -2z m-636 -40 c7 -9 8 -15 2 -15 -5 0 -12 7
-16 15 -3 8 -4 15 -2 15 2 0 9 -7 16 -15z m165 -135 c-7 -22 -26 -23 -33 -2
-2 7 2 10 12 6 11 -4 16 0 16 12 0 9 3 15 6 11 3 -3 3 -15 -1 -27z m173 13
c-10 -2 -26 -2 -35 0 -10 3 -2 5 17 5 19 0 27 -2 18 -5z m172 -13 c0 -5 -7 -7
-15 -4 -8 4 -15 8 -15 10 0 2 7 4 15 4 8 0 15 -4 15 -10z m-513 -15 c0 -9 -10
-15 -24 -15 -14 0 -23 6 -23 15 0 9 9 15 23 15 14 0 24 -6 24 -15z"/>
<path d="M13260 7915 c-21 -25 0 -32 70 -25 l65 6 -39 17 c-48 21 -80 22 -96
2z"/>
<path d="M4136 7718 l-118 -143 269 -131 c147 -72 269 -130 271 -129 2 2 -16
38 -40 82 -168 310 -254 462 -259 463 -3 0 -59 -64 -123 -142z"/>
<path d="M9475 7806 c-11 -7 -116 -67 -233 -133 l-212 -121 112 -16 c223 -31
270 -36 323 -36 l55 0 0 68 c0 98 -12 252 -19 252 -4 0 -15 -6 -26 -14z"/>
<path d="M3746 7372 c-4 -8 -96 -377 -96 -388 0 -4 13 11 28 32 62 85 143 127
247 127 86 0 142 -23 203 -82 43 -42 92 -129 92 -165 0 -10 5 -16 13 -14 6 3
80 22 162 43 83 21 153 41 157 44 4 4 -175 97 -397 208 -222 112 -406 199
-409 195z"/>
<path d="M10015 7174 c-49 -7 -126 -18 -170 -23 -137 -18 -307 -41 -380 -51
-38 -5 -160 -21 -270 -35 -110 -14 -220 -29 -245 -33 l-45 -8 25 -15 c85 -54
1002 -550 1007 -545 4 3 26 90 50 193 103 448 121 528 120 529 -1 0 -42 -5
-92 -12z"/>
<path d="M3841 7119 c-82 -25 -159 -102 -188 -185 -16 -48 -15 -167 2 -183 9
-8 84 7 209 40 l38 10 -21 23 c-24 26 -22 31 47 91 59 53 66 35 9 -23 -47 -48
-47 -49 -28 -66 20 -18 25 -17 158 16 l138 35 -3 28 c-8 69 -77 157 -155 196
-48 25 -153 34 -206 18z"/>
<path d="M8545 7004 c-60 -7 -168 -20 -240 -29 -71 -8 -151 -18 -177 -21 l-48
-6 0 -349 0 -349 38 0 c21 0 92 7 157 15 127 15 252 30 348 41 l57 6 0 354 c0
277 -3 354 -12 353 -7 -1 -62 -7 -123 -15z m123 -680 c-3 -2 -400 -49 -510
-60 l-68 -7 0 342 c0 187 2 341 5 341 2 0 84 9 182 21 98 11 225 26 283 32
l105 12 3 -339 c1 -186 1 -340 0 -342z"/>
<path d="M8513 6883 c-36 -5 -47 -33 -13 -33 17 0 20 -7 20 -50 0 -38 4 -50
15 -50 12 0 15 13 15 55 0 48 2 55 20 55 11 0 20 7 20 15 0 15 -10 16 -77 8z"/>
<path d="M8361 6846 c-52 -55 0 -134 70 -106 16 7 29 16 29 20 0 15 -13 18
-36 8 -17 -8 -27 -8 -39 2 -20 17 -19 36 5 60 16 16 25 18 40 10 12 -7 21 -7
25 0 22 36 -61 42 -94 6z"/>
<path d="M8202 6833 c-52 -44 -27 -117 39 -115 62 2 102 78 61 115 -24 22 -74
22 -100 0z m76 -44 c-4 -42 -31 -60 -54 -37 -11 11 -15 25 -10 42 5 21 12 26
37 26 28 0 30 -2 27 -31z"/>
<path d="M8480 6711 c-42 -6 -45 -8 -48 -39 -3 -31 -2 -32 22 -26 l26 6 0
-116 0 -116 40 0 40 0 0 150 c0 168 8 153 -80 141z"/>
<path d="M8280 6689 c-96 -11 -100 -13 -100 -45 0 -26 1 -27 55 -21 30 3 55 3
55 -1 0 -4 -9 -18 -20 -32 -11 -14 -20 -37 -20 -52 0 -25 3 -27 28 -22 53 11
68 -49 15 -62 -13 -4 -41 -4 -62 0 -34 5 -39 3 -50 -20 -14 -32 -13 -33 33
-44 83 -18 177 27 191 92 8 33 -16 78 -46 85 -24 7 -24 10 6 49 30 39 34 85 8
83 -10 -1 -52 -5 -93 -10z"/>
<path d="M3606 6814 c-4 -22 -10 -50 -13 -62 -5 -20 -2 -23 18 -20 22 3 24 7
20 48 -5 65 -17 81 -25 34z"/>
<path d="M13758 6733 c7 -3 16 -2 19 1 4 3 -2 6 -13 5 -11 0 -14 -3 -6 -6z"/>
<path d="M11750 6633 c-20 -14 -44 -18 -120 -18 -93 0 -96 -1 -152 -38 -32
-21 -58 -42 -58 -47 0 -5 -30 -9 -67 -8 -79 2 -77 3 -334 -149 -167 -98 -188
-116 -193 -158 -2 -16 -20 -25 -39 -19 -28 9 -77 -33 -77 -67 0 -24 -4 -29
-24 -29 -32 0 -198 -99 -204 -122 -3 -12 -14 -18 -31 -18 -14 0 -53 -18 -87
-39 l-61 -39 -6 -59 c-8 -74 1 -131 22 -142 16 -9 74 -20 201 -40 36 -6 122
-20 193 -31 144 -23 335 -53 482 -75 55 -9 130 -21 166 -27 36 -6 86 -8 111
-4 48 7 51 10 402 305 82 69 212 179 290 243 104 87 143 125 147 146 7 33 -9
183 -20 195 -5 4 -35 19 -67 32 l-59 24 -3 50 c-2 41 -7 51 -21 51 -9 0 -22 5
-27 10 -6 6 -54 16 -107 22 -83 9 -97 13 -97 29 0 24 -5 26 -75 33 -49 6 -65
4 -85 -11z m82 -48 c-6 -31 -19 -40 -44 -27 -13 6 -17 11 -10 11 6 1 12 10 12
22 0 15 5 20 23 17 16 -2 21 -9 19 -23z m-627 -375 c-3 -5 -12 -10 -18 -10 -7
0 -6 4 3 10 19 12 23 12 15 0z m155 -14 c0 -2 -7 -7 -16 -10 -8 -3 -12 -2 -9
4 6 10 25 14 25 6z m37 -12 c-3 -3 -12 -4 -19 -1 -8 3 -5 6 6 6 11 1 17 -2 13
-5z m100 0 c-3 -3 -12 -4 -19 -1 -8 3 -5 6 6 6 11 1 17 -2 13 -5z m376 -6 c-4
-7 -6 -23 -4 -35 2 -19 -2 -23 -26 -23 -16 0 -34 -5 -41 -12 -6 -6 -14 -10
-16 -7 -3 2 7 15 22 29 14 14 22 18 18 10 -4 -8 4 0 19 18 26 32 43 44 28 20z
m-168 -398 c-5 -15 -10 -19 -17 -12 -5 5 -7 20 -3 32 5 15 10 19 17 12 5 -5 7
-20 3 -32z m-588 -107 c-2 -5 -7 -17 -11 -28 -6 -16 -9 -17 -16 -5 -16 24 -11
40 11 40 11 0 18 -3 16 -7z"/>
<path d="M11851 6144 c0 -11 3 -14 6 -6 3 7 2 16 -1 19 -3 4 -6 -2 -5 -13z"/>
<path d="M14455 6514 c-317 -107 -378 -131 -341 -131 16 0 537 -295 531 -301
-2 -2 -120 60 -262 139 -141 79 -263 145 -271 147 -9 3 -11 -4 -8 -20 3 -13 8
-50 11 -83 10 -90 14 -100 48 -120 18 -10 133 -82 257 -158 730 -455 915 -567
933 -567 11 0 81 39 156 86 129 82 137 86 166 75 60 -21 101 -14 170 32 67 44
75 60 55 111 -9 24 -5 28 67 73 119 75 107 50 138 300 4 27 26 17 -425 198
-733 296 -834 335 -859 334 -14 0 -179 -52 -366 -115z m945 -284 c0 -9 -40
-30 -56 -30 -13 0 -1 18 19 28 29 14 37 14 37 2z m-564 -82 c90 -48 86 -64 -5
-19 -33 17 -64 31 -68 31 -4 0 -16 -14 -25 -30 -17 -30 -38 -40 -38 -19 0 16
40 79 50 79 5 0 43 -19 86 -42z m819 -74 c-11 -8 -60 -35 -110 -61 -49 -25
-118 -61 -153 -80 -35 -20 -65 -33 -68 -30 -6 6 56 41 226 130 106 55 142 69
105 41z m265 -78 c0 -3 -4 -8 -10 -11 -5 -3 -10 -1 -10 4 0 6 5 11 10 11 6 0
10 -2 10 -4z m-35 -26 c-3 -5 -11 -10 -16 -10 -6 0 -7 5 -4 10 3 6 11 10 16
10 6 0 7 -4 4 -10z m-40 -20 c-3 -5 -12 -10 -18 -10 -7 0 -6 4 3 10 19 12 23
12 15 0z m-35 -20 c0 -5 -5 -10 -11 -10 -5 0 -7 5 -4 10 3 6 8 10 11 10 2 0 4
-4 4 -10z m-80 -44 c0 -3 -4 -8 -10 -11 -5 -3 -10 -1 -10 4 0 6 5 11 10 11 6
0 10 -2 10 -4z m-40 -26 c0 -5 -5 -10 -11 -10 -5 0 -7 5 -4 10 3 6 8 10 11 10
2 0 4 -4 4 -10z m-45 -29 c-3 -6 -11 -8 -17 -5 -6 4 -5 9 3 15 16 10 23 4 14
-10z m-40 -20 c-19 -18 -207 -122 -212 -117 -6 5 17 21 122 80 76 43 111 58
90 37z m225 -141 c0 -5 -5 -10 -11 -10 -5 0 -7 5 -4 10 3 6 8 10 11 10 2 0 4
-4 4 -10z"/>
<path d="M8930 6616 c0 -3 85 -148 190 -323 104 -175 191 -322 193 -328 4 -10
16 4 171 180 110 126 111 108 -13 176 -58 31 -90 49 -216 119 -16 9 -57 32
-90 50 -129 70 -171 94 -202 112 -18 11 -33 17 -33 14z"/>
<path d="M4040 6384 l0 -136 44 34 c210 159 292 222 301 229 5 5 -68 9 -168 9
l-177 0 0 -136z"/>
<path d="M8905 6000 c-38 -5 -131 -15 -205 -24 -362 -43 -474 -56 -770 -89
l-195 -22 -3 -287 -2 -288 27 5 c30 5 164 20 513 60 124 14 279 32 345 40 66
8 186 22 268 31 l147 17 0 284 0 283 -27 -1 c-16 -1 -59 -5 -98 -9z m105 -275
c0 -222 -2 -265 -14 -265 -12 0 -266 -29 -716 -81 -254 -29 -516 -59 -523 -59
-4 0 -6 118 -5 263 l3 262 95 12 c52 6 176 21 275 32 281 32 703 82 775 90 36
5 75 9 88 10 l22 1 0 -265z"/>
<path d="M8793 5873 c-13 -2 -23 -9 -23 -14 0 -6 -8 -5 -21 1 -45 25 -119 -22
-119 -76 0 -33 47 -67 84 -60 41 9 59 25 45 42 -8 10 -15 10 -29 2 -27 -17
-52 -3 -48 29 3 24 8 28 35 28 17 0 35 3 39 8 4 4 18 7 31 7 21 0 23 -4 23
-50 0 -47 2 -50 25 -50 24 0 25 3 25 55 0 48 2 55 20 55 11 0 20 7 20 15 0 15
-51 19 -107 8z"/>
<path d="M8534 5842 c-10 -6 -64 -122 -64 -137 0 -12 38 -4 44 10 6 18 62 21
68 4 2 -7 13 -9 25 -5 22 7 22 7 -8 69 -28 61 -43 74 -65 59z m26 -68 c0 -8
-6 -14 -14 -14 -9 0 -12 7 -9 20 6 22 23 18 23 -6z"/>
<path d="M8450 5834 c-8 -1 -36 -6 -62 -9 -32 -4 -48 -11 -48 -21 0 -8 10 -14
23 -14 20 0 22 -4 19 -50 -4 -48 -3 -50 22 -50 25 0 26 2 26 55 0 48 2 55 20
55 13 0 20 7 20 20 0 11 -1 19 -2 19 -2 -1 -10 -3 -18 -5z"/>
<path d="M8290 5790 c0 -37 -10 -38 -39 -4 -38 44 -56 29 -59 -49 -3 -66 -2
-68 20 -65 16 2 24 11 28 31 l5 29 24 -26 c14 -14 33 -26 43 -26 16 0 18 9 18
70 0 63 -2 70 -20 70 -16 0 -20 -7 -20 -30z"/>
<path d="M8051 5774 c-72 -60 -7 -153 77 -110 52 27 60 100 13 125 -31 17 -57
13 -90 -15z m74 -43 c0 -33 -30 -51 -51 -29 -13 13 -14 20 -4 37 16 31 55 25
55 -8z"/>
<path d="M7899 5751 c-31 -31 -35 -50 -18 -82 17 -32 54 -41 96 -24 30 13 33
17 23 30 -9 11 -17 12 -32 4 -30 -16 -50 -4 -46 28 3 24 8 28 36 29 40 0 64
20 42 34 -29 19 -71 11 -101 -19z"/>
<path d="M8910 5663 c0 -33 12 -63 25 -63 13 0 25 30 25 63 0 12 -8 17 -25 17
-17 0 -25 -5 -25 -17z"/>
<path d="M8770 5600 c0 -62 2 -70 19 -70 11 0 21 7 23 16 2 9 19 22 38 28 23
7 38 20 44 38 15 41 -6 58 -70 58 l-54 0 0 -70z m80 26 c0 -20 -19 -31 -32
-18 -6 6 -7 15 -4 21 10 16 36 13 36 -3z"/>
<path d="M8663 5653 l-33 -4 0 -71 0 -70 53 7 c28 4 56 11 61 15 15 15 -3 27
-34 22 -40 -6 -39 14 1 22 38 7 34 32 -5 28 -39 -4 -32 16 9 24 20 3 35 12 35
20 0 14 -18 15 -87 7z"/>
<path d="M8498 5633 c-15 -4 -18 -16 -18 -69 0 -62 1 -64 25 -64 16 0 25 6 25
15 0 17 16 20 25 5 8 -13 55 -13 55 -1 0 6 -4 12 -9 15 -5 4 -4 19 2 36 16 43
0 65 -49 67 -21 0 -47 -1 -56 -4z m67 -44 c0 -7 -8 -15 -17 -17 -18 -3 -25 18
-11 32 10 10 28 1 28 -15z"/>
<path d="M8313 5613 l-33 -4 0 -70 c0 -62 2 -69 20 -69 13 0 20 7 20 20 0 23
18 27 26 5 4 -8 17 -15 30 -15 26 0 30 10 13 27 -8 8 -7 17 5 34 9 13 16 27
16 31 0 13 -39 48 -52 46 -7 0 -28 -3 -45 -5z m47 -48 c0 -8 -9 -15 -20 -15
-11 0 -20 7 -20 15 0 8 9 15 20 15 11 0 20 -7 20 -15z"/>
<path d="M8138 5592 c-14 -3 -18 -14 -18 -56 0 -62 11 -76 61 -76 49 0 69 27
69 92 0 41 -3 48 -20 48 -17 0 -20 -7 -20 -44 0 -27 -6 -48 -15 -56 -22 -18
-33 -3 -37 50 -2 37 -6 45 -20 42z"/>
<path d="M8921 5581 c-14 -9 -9 -41 6 -41 19 1 35 19 30 34 -7 18 -16 20 -36
7z"/>
<path d="M7965 5548 c-20 -23 -25 -38 -20 -57 10 -40 24 -51 67 -51 45 0 88
35 88 72 0 72 -86 95 -135 36z m85 -33 c0 -32 -25 -51 -45 -35 -20 17 -19 47
2 58 24 14 43 4 43 -23z"/>
<path d="M7891 5543 l-13 -28 -15 23 c-15 21 -43 29 -56 16 -3 -4 5 -23 18
-43 14 -19 25 -49 25 -64 0 -22 4 -28 16 -23 9 3 20 6 25 6 5 0 9 11 9 25 0
14 9 43 20 65 24 48 25 50 2 50 -11 0 -24 -12 -31 -27z"/>
<path d="M13580 3824 l0 -46 -25 16 c-54 35 -142 11 -165 -45 -18 -43 -17
-137 3 -175 22 -42 40 -55 85 -61 31 -4 44 0 70 22 31 26 32 26 32 6 0 -16 6
-21 25 -21 l25 0 0 175 0 175 -25 0 c-23 0 -25 -4 -25 -46z m-31 -78 c18 -19
23 -36 23 -81 1 -72 -23 -109 -74 -113 -50 -4 -71 24 -76 101 -3 52 0 66 18
90 28 36 77 37 109 3z"/>
<path d="M13672 3848 c4 -31 53 -34 53 -3 0 15 -8 21 -28 23 -25 3 -28 0 -25
-20z"/>
<path d="M8644 3776 c-40 -39 -44 -48 -44 -92 0 -71 13 -83 34 -35 10 21 15
47 12 57 -10 34 31 64 89 64 33 0 35 -2 41 -40 7 -43 24 -65 24 -31 0 17 6 21
31 21 l30 0 -7 -57 c-3 -32 -8 -61 -11 -65 -6 -12 -101 -10 -108 2 -3 6 -17
10 -31 10 -13 0 -24 -4 -24 -10 0 -5 -12 -10 -26 -10 -31 0 -24 -14 18 -36
100 -52 212 19 206 131 -3 49 -3 49 -37 50 -39 0 -49 15 -26 38 14 14 13 17
-7 31 -13 9 -43 16 -72 16 -44 0 -53 -4 -92 -44z"/>
<path d="M9303 3808 c-4 -7 -8 -20 -10 -28 -1 -8 -5 -30 -8 -47 -5 -26 -2 -33
10 -33 9 0 15 9 16 23 1 12 3 39 4 60 4 39 1 45 -12 25z"/>
<path d="M8956 3777 c-26 -62 -28 -77 -14 -77 8 0 19 5 26 12 9 9 12 9 12 0 0
-7 7 -12 15 -12 11 0 15 11 15 39 0 76 -29 97 -54 38z"/>
<path d="M10940 3790 c-146 -39 -278 -126 -295 -193 -41 -164 376 -140 553 32
65 64 69 121 10 156 -48 28 -172 31 -268 5z m177 -35 c5 -4 2 -5 -5 0 -10 5
-13 0 -10 -21 2 -23 -1 -29 -16 -29 -22 0 -41 26 -34 47 6 15 53 17 65 3z
m-153 -37 c3 -13 6 -38 6 -55 0 -31 1 -32 26 -23 36 14 44 13 44 -8 0 -13 -15
-23 -53 -35 -30 -9 -57 -17 -60 -17 -4 0 -7 36 -7 80 0 72 2 80 19 80 11 0 21
-9 25 -22z m-84 -75 c17 -36 29 -67 28 -68 -12 -10 -48 -14 -53 -5 -10 16 -22
12 -51 -15 -37 -34 -56 -33 -48 3 15 60 45 136 57 144 26 16 38 6 67 -59z"/>
<path d="M11064 3730 c1 -8 10 -16 20 -18 11 -3 16 0 11 7 -3 6 -10 9 -15 6
-5 -3 -10 0 -13 7 -2 8 -3 7 -3 -2z"/>
<path d="M10817 3631 c-3 -14 0 -21 9 -21 16 0 18 9 5 28 -6 10 -10 9 -14 -7z"/>
<path d="M12898 3792 c-32 -19 -40 -59 -10 -47 53 23 91 28 106 16 32 -27 19
-48 -51 -77 -77 -33 -103 -57 -103 -95 0 -68 90 -101 143 -51 29 27 37 28 37
2 0 -13 7 -20 20 -20 19 0 20 7 20 120 0 115 -1 122 -25 145 -29 30 -95 34
-137 7z m112 -144 c0 -13 -9 -38 -20 -55 -33 -55 -105 -56 -105 -2 0 19 11 29
55 51 68 33 70 33 70 6z"/>
<path d="M13100 3691 c0 -104 2 -121 20 -144 36 -45 110 -47 150 -4 l20 21 0
-22 c0 -15 6 -22 20 -22 19 0 20 7 20 145 0 138 -1 145 -20 145 -19 0 -20 -7
-20 -97 0 -121 -19 -163 -72 -163 -18 0 -38 4 -45 8 -23 14 -33 64 -33 158 0
87 -1 94 -20 94 -19 0 -20 -7 -20 -119z"/>
<path d="M13795 3785 c-29 -28 -33 -76 -8 -100 9 -10 43 -28 75 -42 47 -21 58
-30 58 -50 0 -42 -89 -55 -121 -17 -18 22 -29 17 -29 -16 0 -25 5 -31 39 -41
83 -25 151 11 151 79 0 46 -18 66 -83 88 -25 8 -52 22 -59 31 -10 13 -9 18 11
34 28 23 41 23 86 5 34 -15 35 -14 35 8 0 49 -112 65 -155 21z"/>
<path d="M14041 3784 c-59 -49 -66 -176 -12 -236 31 -35 90 -46 144 -29 51 17
70 63 65 158 -3 70 -6 77 -36 104 -44 40 -116 41 -161 3z m130 -33 c21 -17 24
-28 24 -89 0 -55 -4 -74 -19 -91 -19 -21 -58 -27 -91 -15 -54 21 -60 162 -8
202 24 18 67 15 94 -7z"/>
<path d="M14290 3665 c0 -138 1 -145 20 -145 19 0 20 7 20 90 0 126 19 160 90
160 42 0 50 -24 50 -144 l0 -106 25 0 25 0 0 104 c0 153 -17 186 -96 186 -27
0 -46 -7 -66 -27 l-28 -27 0 27 c0 20 -5 27 -20 27 -19 0 -20 -7 -20 -145z"/>
<path d="M4093 3783 c-3 -10 -19 -51 -34 -90 -25 -68 -26 -73 -9 -73 10 0 22
9 25 20 5 15 15 20 42 20 26 0 36 -5 40 -20 4 -16 43 -30 43 -16 0 3 -14 43
-31 90 -24 68 -35 86 -50 86 -11 0 -22 -8 -26 -17z m41 -55 c10 -38 7 -48 -12
-48 -27 0 -32 8 -20 41 12 35 23 37 32 7z"/>
<path d="M4635 3788 c-11 -29 -35 -161 -31 -166 3 -2 12 -2 20 1 9 4 17 27 21
62 8 59 25 85 25 38 0 -54 13 -103 26 -103 7 0 30 29 50 66 20 36 38 64 39 62
2 -2 -3 -30 -10 -63 -15 -63 -14 -71 8 -62 8 3 19 36 27 79 7 40 15 79 18 86
3 10 -3 13 -24 10 -24 -2 -35 -14 -64 -68 l-35 -65 -9 68 c-8 62 -10 67 -32
67 -14 0 -27 -6 -29 -12z"/>
<path d="M5001 3750 c-6 -27 -14 -68 -17 -90 -6 -37 -5 -40 17 -39 13 0 34 -2
46 -6 30 -10 73 34 73 73 0 45 -21 66 -58 59 -30 -6 -31 -5 -25 23 4 23 2 30
-10 30 -10 0 -19 -16 -26 -50z m83 -42 c16 -26 -9 -70 -37 -66 -28 4 -35 48
-11 72 19 19 33 17 48 -6z"/>
<path d="M5160 3784 c0 -9 7 -14 17 -12 25 5 28 28 4 28 -12 0 -21 -6 -21 -16z"/>
<path d="M5225 3778 c-3 -13 -10 -45 -15 -73 -6 -27 -13 -58 -16 -67 -4 -13 0
-18 14 -18 15 0 21 12 31 68 7 37 15 77 18 90 4 16 1 22 -11 22 -8 0 -18 -10
-21 -22z"/>
<path d="M5290 3785 c0 -8 7 -15 15 -15 8 0 15 7 15 15 0 8 -7 15 -15 15 -8 0
-15 -7 -15 -15z"/>
<path d="M4380 3771 c0 -11 -6 -21 -12 -24 -10 -4 -10 -7 0 -18 6 -7 12 -32
12 -56 0 -36 4 -45 23 -52 28 -11 50 6 25 20 -23 13 -25 77 -3 85 8 4 15 10
15 15 0 5 -7 9 -15 9 -8 0 -15 9 -15 20 0 11 -7 20 -15 20 -8 0 -15 -9 -15
-19z"/>
<path d="M5360 3775 c0 -7 -8 -18 -17 -24 -14 -7 -15 -13 -7 -21 8 -8 9 -24 2
-52 -10 -46 7 -76 36 -65 18 7 22 27 6 27 -19 0 -10 60 12 82 14 14 18 23 10
26 -7 2 -12 12 -12 23 0 10 -7 19 -15 19 -8 0 -15 -7 -15 -15z"/>
<path d="M13680 3655 c0 -128 1 -135 20 -135 19 0 20 7 20 135 0 128 -1 135
-20 135 -19 0 -20 -7 -20 -135z"/>
<path d="M9026 3747 c-9 -42 -8 -47 8 -47 8 0 17 10 19 23 l4 22 2 -22 c0 -13
7 -23 15 -23 8 0 17 10 19 23 l4 22 2 -23 c2 -37 26 -20 26 18 0 33 -1 34 -47
35 -44 2 -46 1 -52 -28z"/>
<path d="M9155 3756 c-8 -13 -13 -31 -9 -40 9 -24 43 -19 56 8 22 50 -17 77
-47 32z"/>
<path d="M9229 3754 c-13 -36 -11 -54 6 -54 8 0 15 8 15 17 0 9 7 24 15 33 14
16 14 18 -5 23 -16 4 -23 -1 -31 -19z"/>
<path d="M9346 3767 c-11 -8 -17 -23 -14 -37 5 -38 25 -34 31 7 8 44 6 47 -17
30z"/>
<path d="M9390 3766 c-6 -6 -10 -23 -10 -38 0 -24 4 -28 29 -28 30 0 41 14 41
55 0 18 -5 23 -25 21 -14 0 -30 -5 -35 -10z"/>
<path d="M9469 3753 c-13 -35 -11 -53 5 -53 8 0 17 12 19 28 l4 27 2 -27 c0
-18 7 -28 17 -28 11 0 14 9 12 37 -2 30 -7 37 -26 38 -17 1 -26 -5 -33 -22z"/>
<path d="M4220 3690 c0 -49 3 -61 20 -70 12 -6 31 -8 43 -4 12 4 30 7 40 5 15
-2 17 7 17 63 0 52 -3 66 -15 66 -11 0 -15 -11 -15 -42 0 -52 -11 -71 -36 -66
-15 2 -20 14 -22 56 -2 37 -7 52 -18 52 -11 0 -14 -14 -14 -60z"/>
<path d="M4470 3730 c-27 -27 -25 -66 5 -95 29 -30 55 -32 86 -7 28 23 30 73
4 102 -23 26 -69 26 -95 0z m69 -14 c7 -8 11 -27 9 -43 -4 -38 -43 -45 -59
-10 -20 45 21 88 50 53z"/>
<path d="M4855 3725 c-35 -34 -32 -83 8 -105 24 -13 30 -13 55 0 15 9 33 29
41 45 32 67 -50 115 -104 60z m73 -28 c4 -33 -13 -57 -38 -57 -31 0 -35 42 -7
78 16 21 42 9 45 -21z"/>
<path d="M5155 3738 c-5 -16 -24 -100 -25 -110 0 -22 30 -4 36 20 3 15 10 41
14 59 4 17 5 34 2 37 -9 10 -22 7 -27 -6z"/>
<path d="M5271 3700 c-14 -66 -14 -80 3 -80 8 0 17 21 25 57 14 71 14 73 -3
73 -9 0 -18 -19 -25 -50z"/>
<path d="M5428 3745 c-3 -3 -2 -25 3 -48 14 -71 11 -94 -11 -100 -28 -7 -25
-27 4 -27 29 0 32 4 86 103 32 60 38 77 26 77 -9 0 -26 -19 -38 -45 -12 -25
-25 -45 -29 -45 -5 0 -9 19 -11 42 -3 38 -16 57 -30 43z"/>
<path d="M6285 3620 c-36 -73 -64 -134 -61 -137 3 -3 35 54 71 127 36 73 63
135 61 137 -3 3 -35 -54 -71 -127z"/>
<path d="M6420 3622 c-35 -70 -65 -130 -67 -134 -2 -5 -2 -8 1 -8 7 0 138 261
134 266 -2 2 -33 -54 -68 -124z"/>
<path d="M6496 3619 c-36 -73 -63 -135 -61 -137 10 -10 26 15 70 112 l49 105
32 -87 c18 -48 36 -97 39 -109 5 -21 35 -34 35 -15 0 11 -88 254 -95 260 -2 3
-34 -55 -69 -129z"/>
<path d="M15557 3743 c-13 -12 -7 -33 9 -33 13 0 14 -10 8 -71 l-7 -71 29 4
c25 3 29 8 37 48 15 85 17 90 37 90 13 0 20 7 20 20 0 18 -7 20 -63 20 -35 0
-67 -3 -70 -7z"/>
<path d="M15715 3738 c-7 -20 -25 -130 -25 -150 0 -13 8 -18 29 -18 25 0 30 5
36 38 l8 37 15 -37 c12 -32 20 -38 43 -38 33 0 36 10 12 46 -16 24 -16 27 0
35 23 13 38 44 31 63 -11 30 -140 50 -149 24z m85 -47 c0 -10 -6 -21 -14 -24
-19 -7 -25 0 -19 24 7 25 33 25 33 0z"/>
<path d="M15924 3731 c-60 -37 -66 -127 -10 -152 92 -42 196 90 120 150 -33
26 -70 27 -110 2z m71 -41 c8 -25 -15 -75 -35 -75 -19 0 -26 61 -9 81 16 20
37 17 44 -6z"/>
<path d="M16082 3681 c-18 -106 -17 -113 16 -109 24 3 27 7 30 46 2 23 6 42
10 42 4 0 14 -19 22 -42 13 -38 19 -43 45 -43 29 0 30 1 41 75 17 104 18 100
-16 100 -26 0 -30 -4 -31 -27 0 -16 -4 -37 -8 -48 -7 -16 -10 -12 -23 25 -12
39 -19 45 -45 48 -30 3 -30 3 -41 -67z"/>
<path d="M16280 3678 c-6 -40 -14 -81 -17 -91 -4 -16 0 -18 28 -15 36 3 39 9
53 126 l7 52 -30 0 c-29 0 -29 -2 -41 -72z"/>
<path d="M16424 3736 c-67 -29 -86 -107 -37 -146 33 -26 96 -25 101 3 3 13 -3
17 -22 17 -18 0 -30 8 -38 25 -16 35 12 75 52 75 23 0 30 4 30 20 0 24 -38 27
-86 6z"/>
<path d="M16557 3730 c-34 -27 -34 -53 -2 -78 34 -27 32 -45 -5 -40 -19 3 -31
0 -35 -10 -8 -21 3 -32 35 -32 41 0 76 18 89 47 10 21 7 27 -20 52 -32 30 -26
48 12 36 17 -6 20 -3 17 17 -4 32 -54 37 -91 8z"/>
<path d="M6357 3633 c-30 -59 -57 -119 -61 -133 -3 -14 23 33 59 104 37 70 64
130 61 133 -2 3 -29 -44 -59 -104z"/>
<path d="M6720 3615 l0 -125 75 0 c91 0 131 17 151 65 18 44 18 65 -2 115 -22
55 -55 70 -149 70 l-75 0 0 -125z m177 81 c33 -39 33 -124 0 -162 -20 -23 -34
-28 -85 -32 l-62 -4 0 109 c0 60 3 113 8 117 4 4 31 6 61 4 44 -4 59 -10 78
-32z"/>
<path d="M7000 3731 c0 -26 99 -236 111 -236 14 0 114 233 104 243 -11 11 -25
-16 -57 -108 -18 -52 -37 -93 -43 -91 -5 2 -28 48 -50 102 -22 54 -46 99 -52
99 -7 0 -13 -4 -13 -9z"/>
<path d="M7300 3615 l0 -125 63 2 62 1 -50 6 -50 6 -3 53 -3 52 45 0 c25 0 48
5 51 10 4 6 -13 10 -45 10 l-51 0 3 48 3 47 50 6 50 6 -62 1 -63 2 0 -125z"/>
<path d="M7460 3724 c0 -11 45 -64 110 -129 72 -72 110 -103 110 -92 0 10 -49
69 -110 130 -78 79 -110 105 -110 91z"/>
<path d="M7668 3733 l42 -4 0 -120 c0 -99 3 -119 15 -119 12 0 15 20 15 119
l0 120 43 4 c23 2 -3 4 -58 4 -55 0 -81 -2 -57 -4z"/>
<path d="M11310 3716 c0 -10 13 -16 42 -18 46 -3 67 -28 23 -28 -45 0 -65 -17
-65 -56 0 -42 23 -43 28 -1 3 23 8 27 36 27 38 0 56 15 56 47 0 28 -27 43 -79
43 -29 0 -41 -4 -41 -14z"/>
<path d="M11457 3723 c-16 -15 -4 -22 40 -25 51 -3 74 -28 26 -28 -42 0 -73
-26 -73 -61 0 -19 5 -29 15 -29 8 0 15 7 15 15 0 19 17 19 50 0 32 -18 50 -19
50 -1 0 8 -15 20 -32 27 -30 11 -31 13 -10 16 46 9 53 75 9 87 -30 8 -82 8
-90 -1z"/>
<path d="M11600 3655 c0 -60 3 -75 15 -75 12 0 15 15 15 75 0 60 -3 75 -15 75
-12 0 -15 -15 -15 -75z"/>
<path d="M11676 3707 c-30 -30 -34 -71 -10 -105 12 -17 25 -22 59 -22 51 0 75
24 75 75 0 43 -19 64 -62 71 -30 5 -41 2 -62 -19z m83 -21 c7 -8 11 -27 9 -43
-3 -24 -8 -28 -37 -31 -36 -4 -51 9 -51 44 0 40 54 61 79 30z"/>
<path d="M11820 3716 c0 -11 14 -16 47 -18 51 -3 74 -28 26 -28 -42 0 -73 -26
-73 -61 0 -19 5 -29 15 -29 8 0 15 7 15 15 0 19 17 19 50 0 32 -18 50 -19 50
-1 0 8 -15 20 -32 27 -30 11 -31 13 -10 16 46 9 53 75 9 87 -43 11 -97 7 -97
-8z"/>
<path d="M11970 3655 c0 -60 3 -75 15 -75 12 0 15 15 15 75 0 60 -3 75 -15 75
-12 0 -15 -15 -15 -75z"/>
<path d="M12020 3716 c0 -9 9 -16 20 -16 18 0 20 -7 20 -60 0 -33 4 -60 10
-60 6 0 10 25 10 56 0 48 3 57 20 61 36 9 15 28 -33 31 -37 2 -47 0 -47 -12z"/>
<path d="M12140 3722 c0 -4 11 -24 25 -44 14 -20 25 -51 25 -68 0 -43 24 -34
28 10 2 19 12 46 23 61 10 15 19 32 19 38 0 21 -20 11 -39 -20 l-19 -30 -21
30 c-21 29 -41 41 -41 23z"/>
<path d="M7790 3700 c0 -5 5 -10 10 -10 6 0 10 5 10 10 0 6 -4 10 -10 10 -5 0
-10 -4 -10 -10z"/>
<path d="M8713 3680 c-6 -15 -7 -26 -1 -29 15 -5 20 5 16 31 l-5 23 -10 -25z"/>
<path d="M9820 3672 c0 -4 9 -8 20 -9 11 -1 20 2 20 8 0 5 -9 9 -20 9 -11 0
-20 -4 -20 -8z"/>
<path d="M8947 3663 c-12 -19 -19 -103 -9 -103 15 0 18 8 26 63 5 29 3 47 -3
47 -5 0 -12 -3 -14 -7z"/>
<path d="M9490 3654 c0 -17 22 -14 28 4 2 7 -3 12 -12 12 -9 0 -16 -7 -16 -16z"/>
<path d="M9777 3663 c-3 -5 -8 -29 -11 -55 -6 -40 -5 -48 8 -48 9 0 16 8 16
18 0 9 3 34 6 55 4 23 3 37 -4 37 -6 0 -13 -3 -15 -7z"/>
<path d="M9074 3649 c-13 -21 -12 -89 1 -89 14 0 33 57 27 83 -4 20 -17 22
-28 6z"/>
<path d="M9435 3650 c-12 -19 -13 -90 -1 -90 13 0 33 58 28 83 -4 19 -17 23
-27 7z"/>
<path d="M8980 3611 c0 -11 -3 -26 -6 -35 -4 -11 -1 -16 10 -16 9 0 16 8 16
20 0 11 4 20 9 20 5 0 7 -9 4 -20 -4 -14 0 -20 11 -20 9 0 16 6 16 13 0 6 3
22 6 35 6 20 3 22 -30 22 -29 0 -36 -4 -36 -19z"/>
<path d="M9120 3611 c-13 -25 -3 -51 20 -51 25 0 35 17 13 23 -14 4 -13 5 5 6
15 1 22 7 22 21 0 27 -45 27 -60 1z"/>
<path d="M9200 3618 c0 -7 -3 -23 -6 -35 -5 -17 -2 -23 10 -23 9 0 16 8 16 20
0 11 7 23 15 26 24 9 17 24 -10 24 -14 0 -25 -6 -25 -12z"/>
<path d="M9260 3611 c0 -11 -3 -26 -6 -35 -4 -11 -1 -16 10 -16 9 0 16 8 16
20 0 11 4 20 9 20 5 0 7 -9 4 -20 -4 -14 0 -20 11 -20 12 0 16 9 16 35 0 32
-2 35 -30 35 -23 0 -30 -5 -30 -19z"/>
<path d="M9341 3608 c-12 -33 -3 -48 30 -48 16 0 29 5 29 13 0 6 3 22 6 35 6
19 3 22 -25 22 -24 0 -34 -6 -40 -22z m31 -20 c-7 -7 -12 -8 -12 -2 0 14 12
26 19 19 2 -3 -1 -11 -7 -17z"/>
<path d="M9478 3595 c-5 -40 16 -50 26 -12 9 35 7 47 -8 47 -8 0 -15 -14 -18
-35z"/>
<path d="M9524 3606 c-7 -31 1 -46 26 -46 22 0 44 35 36 56 -3 8 -17 14 -30
14 -19 0 -27 -7 -32 -24z m32 -23 c-10 -10 -19 5 -10 18 6 11 8 11 12 0 2 -7
1 -15 -2 -18z"/>
<path d="M9600 3595 c0 -40 16 -46 30 -12 l9 22 0 -22 c2 -45 31 -18 31 28 0
15 -7 19 -35 19 -33 0 -35 -2 -35 -35z"/>
<path d="M9686 3614 c-3 -9 -6 -25 -6 -35 0 -17 6 -20 33 -17 28 3 32 7 35 36
3 30 1 32 -26 32 -18 0 -32 -6 -36 -16z m31 -26 c-3 -8 -6 -5 -6 6 -1 11 2 17
5 13 3 -3 4 -12 1 -19z"/>
<path d="M4276 3543 c-6 -14 -5 -15 5 -6 7 7 10 15 7 18 -3 3 -9 -2 -12 -12z"/>
<path d="M4260 3476 c0 -2 13 -6 29 -8 17 -2 28 -1 25 4 -5 8 -54 12 -54 4z"/>
<path d="M4898 2639 c-21 -10 -44 -29 -53 -42 -20 -32 -29 -124 -16 -173 15
-57 38 -83 121 -139 87 -59 100 -77 100 -135 0 -49 -13 -70 -42 -70 -23 0 -38
38 -38 96 l0 44 -70 0 -70 0 0 -60 c0 -91 19 -126 82 -155 91 -43 215 -24 262
38 18 24 21 43 21 115 0 48 -6 101 -13 117 -12 30 -81 89 -155 134 -44 27 -57
48 -57 93 0 37 15 58 41 58 20 0 29 -20 29 -66 l0 -34 75 0 76 0 -7 63 c-3 34
-14 71 -23 81 -47 55 -189 74 -263 35z"/>
<path d="M4020 2326 l0 -326 154 0 c85 0 166 4 181 10 36 14 55 65 55 152 0
104 -13 141 -55 164 -19 10 -35 21 -35 24 0 3 13 11 29 18 39 17 56 67 47 135
-16 119 -48 139 -238 145 l-138 5 0 -327z m214 208 c22 -21 22 -117 0 -139
-33 -33 -49 -15 -52 59 -2 38 -1 75 2 83 7 18 31 17 50 -3z m-3 -244 c16 -9
19 -22 19 -88 0 -87 -6 -100 -40 -104 -25 -3 -25 -2 -28 86 -4 118 2 131 49
106z"/>
<path d="M4490 2325 l0 -325 140 0 140 0 0 55 0 54 -62 3 -63 3 0 75 0 75 53
3 52 3 0 54 0 54 -52 3 -53 3 0 70 0 70 58 3 57 3 0 59 0 60 -135 0 -135 0 0
-325z"/>
<path d="M5240 2591 l0 -60 48 -3 47 -3 3 -262 2 -263 80 0 80 0 0 265 0 265
50 0 50 0 0 60 0 60 -180 0 -180 0 0 -59z"/>
<path d="M11095 2496 c-84 -38 -109 -119 -103 -350 3 -148 5 -165 28 -211 35
-69 73 -89 170 -90 99 0 145 23 180 91 23 44 25 62 29 199 5 240 -19 325 -106
361 -41 18 -159 17 -198 0z m168 -88 c37 -50 48 -345 16 -436 -19 -54 -91 -79
-136 -47 -31 22 -42 71 -49 210 -7 135 6 237 34 275 34 45 100 45 135 -2z"/>
<path d="M11207 2133 c-15 -15 -6 -52 13 -58 25 -8 50 10 50 35 0 24 -46 41
-63 23z"/>
<path d="M11833 2490 c-29 -15 -48 -34 -62 -63 -52 -108 -54 -393 -3 -497 32
-66 118 -99 217 -84 62 9 106 40 133 96 44 88 40 413 -6 491 -32 56 -65 72
-155 75 -68 2 -89 -1 -124 -18z m185 -88 c14 -21 18 -57 21 -185 4 -198 -2
-242 -39 -279 -61 -60 -133 -24 -151 77 -17 90 -7 342 14 382 31 58 118 61
155 5z"/>
<path d="M11871 2126 c-13 -16 -5 -42 15 -50 22 -8 54 12 54 33 0 30 -48 42
-69 17z"/>
<path d="M10640 2176 l0 -326 98 0 c163 1 216 41 216 165 0 74 -22 118 -71
144 l-37 18 32 17 c44 23 66 69 66 141 1 118 -49 157 -206 163 l-98 4 0 -326z
m180 236 c27 -22 39 -106 21 -151 -13 -29 -47 -51 -81 -51 -19 0 -20 8 -20
110 l0 110 29 0 c16 0 39 -8 51 -18z m1 -291 c19 -15 24 -30 27 -84 4 -60 2
-68 -21 -91 -17 -17 -37 -26 -57 -26 l-30 0 0 110 0 110 29 0 c16 0 39 -8 52
-19z"/>
<path d="M11375 2483 c4 -10 36 -94 71 -186 l64 -169 0 -139 0 -139 50 0 50 0
0 134 0 134 54 139 c30 76 63 162 75 191 l21 52 -49 0 -49 0 -50 -147 -49
-148 -48 148 -47 147 -50 0 c-44 0 -49 -2 -43 -17z"/>
<path d="M12172 2474 c-39 -27 -23 -78 33 -98 24 -9 13 3 -17 18 -48 24 -25
86 31 86 52 0 71 -55 29 -84 -25 -18 -17 -21 13 -6 25 14 25 61 1 83 -23 21
-61 22 -90 1z"/>
<path d="M6975 2473 c-49 -12 -35 -23 22 -17 55 6 66 4 107 -20 93 -55 117
-170 53 -260 -34 -48 -153 -87 -172 -56 -3 6 -1 10 5 10 6 0 8 5 5 10 -4 6 9
10 32 10 50 0 101 32 119 75 8 19 14 37 14 40 0 14 -28 2 -56 -26 -24 -23 -45
-33 -78 -36 -51 -6 -56 2 -31 47 8 14 14 36 15 49 0 23 1 23 19 7 10 -9 25
-14 34 -11 8 4 31 2 51 -3 44 -13 51 -3 32 42 -18 44 -42 56 -107 56 -55 0
-54 1 -39 -55 6 -25 -1 -56 -12 -49 -7 5 -8 3 -3 -6 6 -10 1 -12 -26 -7 -19 3
-42 8 -51 12 -29 12 -23 -47 8 -85 25 -29 27 -29 40 -13 7 10 14 13 14 6 0 -6
3 -18 6 -27 4 -10 1 -16 -9 -16 -8 0 -17 -6 -20 -12 -6 -18 -66 39 -83 79 -8
18 -14 51 -14 73 0 22 -4 40 -10 40 -18 0 -11 -92 11 -138 58 -120 234 -138
322 -32 25 29 47 86 47 120 0 37 -24 94 -53 127 -51 58 -123 83 -192 66z"/>
<path d="M12192 2430 c0 -19 2 -27 5 -17 6 21 12 22 28 1 10 -15 12 -13 13 15
0 17 -4 31 -9 31 -6 0 -7 -4 -4 -10 3 -5 0 -10 -9 -10 -8 0 -17 6 -19 13 -3 6
-5 -4 -5 -23z"/>
<path d="M6861 2389 c-22 -36 -26 -49 -13 -49 11 0 46 69 39 76 -3 4 -15 -9
-26 -27z"/>
<path d="M6906 2351 c-3 -5 6 -16 20 -26 25 -16 25 -16 15 4 -14 25 -28 34
-35 22z"/>
<path d="M8483 2315 c-1 -19 -8 -49 -17 -65 -14 -30 -14 -30 13 -30 21 0 27 5
29 23 1 13 8 42 16 65 l15 42 -27 0 c-24 0 -27 -4 -29 -35z"/>
<path d="M8587 2330 c3 -11 0 -26 -6 -33 -6 -8 -8 -16 -6 -19 3 -3 1 -17 -4
-32 -9 -22 -8 -26 8 -26 14 0 24 13 35 47 23 66 21 83 -8 83 -19 0 -23 -4 -19
-20z"/>
<path d="M8636 2292 c-20 -72 -20 -72 2 -72 14 0 23 14 35 60 21 73 21 70 -2
70 -14 0 -22 -14 -35 -58z"/>
<path d="M9141 2343 c6 -37 -2 -43 -51 -43 -48 0 -52 -2 -65 -32 -15 -37 -12
-48 13 -48 12 0 18 9 20 26 3 37 10 44 43 44 32 0 34 -6 19 -44 -9 -24 -8 -26
21 -26 17 0 28 4 24 10 -5 8 7 66 22 106 4 10 -2 14 -21 14 -14 0 -25 -3 -25
-7z"/>
<path d="M9212 2327 c-1 -13 -8 -42 -16 -65 -14 -39 -14 -42 3 -42 14 0 22 15
35 58 20 72 20 72 -2 72 -11 0 -18 -8 -20 -23z"/>
<path d="M9292 2344 c3 -3 -1 -26 -8 -51 -18 -61 -18 -73 4 -73 13 0 18 9 20
30 1 16 7 41 12 55 14 38 13 45 -12 45 -12 0 -19 -2 -16 -6z"/>
<path d="M9374 2341 c3 -5 -1 -28 -9 -51 -18 -52 -19 -70 -2 -70 15 0 51 105
42 120 -3 6 -13 10 -21 10 -8 0 -13 -4 -10 -9z"/>
<path d="M9923 2344 c3 -3 2 -16 -2 -28 -5 -11 -11 -38 -15 -58 -6 -33 -4 -38
11 -38 13 0 19 8 21 26 1 14 5 31 9 37 4 6 8 24 10 39 2 23 -1 28 -19 28 -12
0 -19 -3 -15 -6z"/>
<path d="M14310 2341 c0 -6 11 -11 24 -11 13 0 40 -11 61 -25 40 -28 44 -12 4
16 -30 22 -89 35 -89 20z"/>
<path d="M8713 2292 c-7 -4 -16 -22 -19 -40 -6 -28 -4 -32 15 -32 14 0 21 6
21 20 0 18 7 20 55 20 48 0 55 2 55 20 0 18 -7 20 -57 20 -32 0 -64 -4 -70 -8z
m87 -12 c0 -5 -13 -10 -30 -10 -16 0 -30 5 -30 10 0 6 14 10 30 10 17 0 30 -4
30 -10z"/>
<path d="M8860 2274 c-15 -38 -12 -54 9 -54 14 0 21 10 25 35 6 31 10 35 38
35 29 0 30 -1 24 -35 -6 -32 -5 -35 16 -35 20 0 23 6 26 40 l2 40 -65 0 c-61
0 -66 -2 -75 -26z"/>
<path d="M9432 2288 c-19 -24 -18 -62 1 -66 12 -2 17 3 17 18 0 12 5 30 10 41
8 15 7 19 -3 19 -8 0 -19 -6 -25 -12z"/>
<path d="M9526 2287 c3 -8 0 -26 -5 -40 -8 -22 -8 -27 4 -27 17 0 35 30 35 59
0 14 -6 21 -20 21 -12 0 -17 -5 -14 -13z"/>
<path d="M9592 2287 c-6 -6 -13 -24 -17 -40 -6 -22 -4 -27 12 -27 11 0 20 6
20 13 0 7 3 25 7 40 7 28 -4 36 -22 14z"/>
<path d="M9686 2276 c-3 -13 -9 -31 -12 -40 -4 -11 -1 -16 10 -16 18 0 40 46
32 67 -8 21 -23 15 -30 -11z"/>
<path d="M9739 2273 c-5 -16 -12 -34 -14 -40 -2 -8 4 -13 14 -13 13 0 21 11
29 40 8 33 7 40 -4 40 -8 0 -19 -12 -25 -27z"/>
<path d="M9833 2260 c-1 -32 3 -40 16 -40 13 0 18 10 19 40 2 33 0 40 -15 40
-14 0 -18 -9 -20 -40z"/>
<path d="M15084 2266 c-15 -12 -16 -17 -7 -27 17 -17 112 -23 143 -10 22 9 20
10 -14 4 -28 -4 -37 -3 -32 6 5 7 -1 11 -14 11 -13 0 -18 -4 -14 -11 4 -7 -2
-9 -17 -7 -32 4 -31 30 1 39 l25 7 -26 1 c-14 1 -34 -5 -45 -13z"/>
<path d="M15190 2270 c14 -4 34 -8 45 -8 l20 -1 -20 9 c-11 5 -31 8 -45 8
l-25 0 25 -8z"/>
<path d="M15292 2264 c-50 -35 -12 -94 60 -94 31 0 38 4 38 19 0 14 -5 18 -20
14 -11 -3 -27 0 -35 7 -21 18 1 43 32 37 17 -3 23 0 23 14 0 15 -8 19 -38 19
-21 0 -48 -7 -60 -16z"/>
<path d="M16100 2274 c0 -3 12 -28 28 -55 21 -39 32 -49 53 -49 21 0 30 8 44
41 18 39 19 40 27 18 5 -13 7 -32 4 -41 -3 -15 3 -18 45 -18 52 0 67 16 22 23
-27 4 -27 4 -5 12 12 4 22 11 22 16 0 5 -10 9 -22 10 -22 1 -20 2 21 15 28 9
-4 22 -71 29 l-66 6 -7 -30 c-8 -39 -20 -39 -34 -1 -7 23 -16 30 -35 30 -15 0
-26 -3 -26 -6z"/>
<path d="M16660 2256 c0 -34 10 -56 25 -56 15 0 25 22 25 56 0 19 -5 24 -25
24 -20 0 -25 -5 -25 -24z"/>
<path d="M14447 2243 c5 -16 7 -47 7 -70 -2 -49 11 -57 21 -14 7 33 -11 111
-26 111 -5 0 -6 -11 -2 -27z"/>
<path d="M15400 2220 l0 -50 50 0 c53 0 69 16 23 23 -27 4 -27 4 -5 12 12 4
22 11 22 15 0 5 -10 11 -22 13 l-23 4 23 2 c12 0 22 8 22 16 0 11 -12 15 -45
15 l-45 0 0 -50z"/>
<path d="M15510 2220 c0 -43 3 -50 19 -50 11 0 22 6 25 13 5 10 7 10 12 0 3
-7 17 -13 30 -13 21 0 23 3 16 17 -7 11 -6 23 2 35 15 26 -15 48 -66 48 l-38
0 0 -50z m60 10 c0 -5 -4 -10 -10 -10 -5 0 -10 5 -10 10 0 6 5 10 10 10 6 0
10 -4 10 -10z"/>
<path d="M15620 2264 c0 -3 12 -25 26 -50 30 -50 60 -59 70 -19 7 28 24 24 24
-6 0 -14 7 -19 25 -19 24 0 43 24 60 78 6 21 4 23 -17 20 -15 -2 -24 -11 -26
-25 -4 -31 -20 -29 -28 2 -9 36 -39 32 -54 -7 l-13 -33 -10 33 c-7 24 -16 32
-33 32 -13 0 -24 -3 -24 -6z"/>
<path d="M15840 2220 c0 -47 2 -50 25 -50 23 0 25 3 25 50 0 47 -2 50 -25 50
-23 0 -25 -3 -25 -50z"/>
<path d="M15900 2220 c0 -47 2 -50 25 -50 20 0 25 5 25 26 l0 27 21 -27 c12
-15 30 -26 45 -26 22 0 24 4 24 50 0 43 -3 50 -20 50 -15 0 -20 -7 -20 -25 0
-14 -4 -25 -9 -25 -5 0 -16 11 -25 25 -10 16 -26 25 -41 25 -23 0 -25 -3 -25
-50z"/>
<path d="M16382 2254 c-27 -19 -29 -60 -3 -74 42 -22 121 -6 121 25 0 10 -11
15 -35 15 -35 0 -47 -13 -22 -24 6 -3 1 -4 -13 -3 -18 1 -25 8 -25 22 0 16 8
21 43 23 46 3 55 16 20 26 -37 10 -62 7 -86 -10z"/>
<path d="M16526 2222 l-25 -49 73 0 73 0 -25 49 c-19 37 -30 48 -48 48 -18 0
-29 -11 -48 -48z m50 -19 c-10 -10 -19 5 -10 18 6 11 8 11 12 0 2 -7 1 -15 -2
-18z"/>
<path d="M8789 2234 c-11 -14 -10 -15 11 -12 13 1 25 9 28 16 5 17 -23 15 -39
-4z"/>
<path d="M13607 2223 c-4 -3 -7 -26 -7 -50 0 -32 4 -43 15 -43 11 0 15 11 15
38 l1 37 20 -37 c11 -21 26 -38 34 -38 8 0 23 17 34 38 l20 37 1 -37 c0 -27 4
-38 15 -38 22 0 21 88 -2 97 -16 6 -33 -9 -59 -52 -9 -16 -12 -14 -32 18 -20
35 -40 46 -55 30z"/>
<path d="M13806 2217 c-12 -9 -17 -23 -14 -47 l3 -35 55 0 55 0 3 41 c3 36 0
42 -20 48 -36 9 -63 7 -82 -7z m72 -39 c-2 -28 -7 -33 -28 -33 -21 0 -26 5
-28 33 -3 30 -1 32 28 32 29 0 31 -2 28 -32z"/>
<path d="M13925 2220 c-3 -5 3 -10 14 -10 18 0 21 -6 21 -40 0 -29 4 -40 15
-40 11 0 15 11 15 40 0 33 3 40 20 40 11 0 20 5 20 10 0 6 -22 10 -49 10 -28
0 -53 -4 -56 -10z"/>
<path d="M14044 2216 c-9 -23 0 -79 14 -84 8 -2 12 11 12 47 0 48 -14 68 -26
37z"/>
<path d="M14108 2219 c-21 -12 -24 -59 -6 -77 7 -7 30 -12 53 -12 23 0 46 5
53 12 17 17 15 54 -4 72 -17 18 -70 21 -96 5z m80 -41 c3 -22 -2 -29 -22 -34
-32 -8 -46 1 -46 30 0 30 9 38 40 34 19 -2 26 -10 28 -30z"/>
<path d="M14240 2180 c0 -27 5 -50 10 -50 6 0 10 19 10 42 l0 42 31 -42 c21
-29 38 -42 55 -42 22 0 24 4 24 51 0 59 -22 65 -30 8 l-5 -34 -29 38 c-15 20
-37 37 -47 37 -16 0 -19 -8 -19 -50z"/>
<path d="M16050 2205 c0 -10 11 -15 35 -15 24 0 35 5 35 15 0 10 -11 15 -35
15 -24 0 -35 -5 -35 -15z"/>
<path d="M15130 2190 c6 -11 19 -20 30 -20 11 0 24 9 30 20 12 22 1 27 -18 8
-9 -9 -15 -9 -24 0 -19 19 -30 14 -18 -8z"/>
<path d="M8802 2193 c207 -2 549 -2 760 0 211 1 41 2 -377 2 -418 0 -590 -1
-383 -2z"/>
<path d="M16660 2180 c0 -5 11 -10 25 -10 14 0 25 5 25 10 0 6 -11 10 -25 10
-14 0 -25 -4 -25 -10z"/>
<path d="M9046 2145 c-9 -26 -7 -32 5 -12 6 10 9 21 6 23 -2 3 -7 -2 -11 -11z"/>
<path d="M9076 2135 c-9 -13 -16 -28 -16 -32 0 -4 6 1 12 12 11 19 11 19 19 0
6 -16 8 -13 8 13 1 38 -2 39 -23 7z"/>
<path d="M9525 2150 c-3 -6 1 -7 9 -4 18 7 21 14 7 14 -6 0 -13 -4 -16 -10z"/>
<path d="M8841 2134 c0 -11 3 -14 6 -6 3 7 2 16 -1 19 -3 4 -6 -2 -5 -13z"/>
<path d="M9305 2140 c-3 -5 -1 -10 4 -10 6 0 11 5 11 10 0 6 -2 10 -4 10 -3 0
-8 -4 -11 -10z"/>
<path d="M9731 2134 c0 -11 3 -14 6 -6 3 7 2 16 -1 19 -3 4 -6 -2 -5 -13z"/>
<path d="M8558 2133 c7 -3 16 -2 19 1 4 3 -2 6 -13 5 -11 0 -14 -3 -6 -6z"/>
<path d="M8606 2124 c-9 -23 -4 -24 17 -2 13 14 14 18 3 18 -8 0 -17 -7 -20
-16z"/>
<path d="M8663 2124 c-8 -22 13 -42 30 -25 10 10 9 11 -5 6 -12 -5 -18 -2 -18
8 0 9 8 18 18 20 16 4 16 5 -1 6 -10 0 -20 -6 -24 -15z"/>
<path d="M8797 2120 c3 -11 7 -20 9 -20 2 0 4 9 4 20 0 11 -4 20 -9 20 -5 0
-7 -9 -4 -20z"/>
<path d="M8921 2117 c-13 -21 -12 -21 5 -5 10 10 16 20 13 22 -3 3 -11 -5 -18
-17z"/>
<path d="M8956 2125 c-9 -26 -7 -32 5 -12 6 10 9 21 6 23 -2 3 -7 -2 -11 -11z"/>
<path d="M9151 2124 c0 -11 3 -14 6 -6 3 7 2 16 -1 19 -3 4 -6 -2 -5 -13z"/>
<path d="M9181 2123 c-1 -25 14 -39 25 -22 4 7 3 9 -4 5 -6 -3 -12 3 -15 16
-4 23 -4 23 -6 1z"/>
<path d="M9241 2118 c1 -19 2 -19 6 -5 3 11 11 16 19 13 8 -3 14 -1 14 4 0 6
-9 10 -20 10 -14 0 -20 -6 -19 -22z"/>
<path d="M9342 2120 c0 -14 2 -19 5 -12 2 6 2 18 0 25 -3 6 -5 1 -5 -13z"/>
<path d="M9370 2129 c0 -5 5 -7 10 -4 6 3 10 8 10 11 0 2 -4 4 -10 4 -5 0 -10
-5 -10 -11z"/>
<path d="M9402 2120 c0 -14 2 -19 5 -12 2 6 2 18 0 25 -3 6 -5 1 -5 -13z"/>
<path d="M9457 2120 c-3 -11 -1 -20 4 -20 5 0 9 9 9 20 0 11 -2 20 -4 20 -2 0
-6 -9 -9 -20z"/>
<path d="M9573 2124 c-3 -8 -2 -19 3 -24 5 -5 9 1 9 16 0 28 -3 30 -12 8z"/>
<path d="M9602 2120 c0 -14 2 -19 5 -12 2 6 2 18 0 25 -3 6 -5 1 -5 -13z"/>
<path d="M9853 2125 c-3 -9 -3 -19 1 -22 3 -4 6 1 6 10 0 8 8 18 18 20 16 4
16 5 -1 6 -10 0 -20 -6 -24 -14z"/>
<path d="M9923 2118 c1 -15 6 -23 11 -18 4 4 4 16 -2 26 -9 16 -10 14 -9 -8z"/>
<path d="M9536 2119 c3 -6 0 -16 -7 -21 -12 -8 -11 -9 1 -5 18 4 27 37 10 37
-6 0 -8 -5 -4 -11z"/>
<path d="M9691 2114 c0 -11 3 -14 6 -6 3 7 2 16 -1 19 -3 4 -6 -2 -5 -13z"/>
<path d="M9761 2114 c0 -11 3 -14 6 -6 3 7 2 16 -1 19 -3 4 -6 -2 -5 -13z"/>
<path d="M8770 2111 c0 -6 4 -13 10 -16 6 -3 7 1 4 9 -7 18 -14 21 -14 7z"/>
<path d="M8871 2104 c0 -11 3 -14 6 -6 3 7 2 16 -1 19 -3 4 -6 -2 -5 -13z"/>
<path d="M9660 2111 c0 -6 4 -13 10 -16 6 -3 7 1 4 9 -7 18 -14 21 -14 7z"/>
<path d="M9800 2096 c7 -7 13 -7 20 0 6 6 3 10 -10 10 -13 0 -16 -4 -10 -10z"/>
<path d="M14423 2091 c-7 -11 -36 -28 -65 -40 -44 -16 -48 -20 -25 -20 41 -1
117 45 117 71 0 14 -15 8 -27 -11z"/>
<path d="M13161 2074 c0 -11 3 -14 6 -6 3 7 2 16 -1 19 -3 4 -6 -2 -5 -13z"/>
<path d="M13991 2074 c0 -11 3 -14 6 -6 3 7 2 16 -1 19 -3 4 -6 -2 -5 -13z"/>
<path d="M13891 2064 c0 -11 3 -14 6 -6 3 7 2 16 -1 19 -3 4 -6 -2 -5 -13z"/>
<path d="M13941 2064 c0 -11 3 -14 6 -6 3 7 2 16 -1 19 -3 4 -6 -2 -5 -13z"/>
<path d="M14151 2064 c0 -11 3 -14 6 -6 3 7 2 16 -1 19 -3 4 -6 -2 -5 -13z"/>
<path d="M6426 1979 c-3 -17 -6 -44 -6 -60 0 -27 2 -29 43 -29 59 0 92 19 92
52 1 15 4 30 8 34 17 17 -18 34 -73 34 -56 0 -58 -1 -64 -31z m109 1 c0 -10
-12 -16 -37 -18 -48 -4 -50 -22 -2 -22 52 0 38 -24 -16 -28 l-42 -3 7 38 c10
52 12 55 53 51 25 -2 37 -8 37 -18z"/>
<path d="M6586 1979 c-3 -17 -6 -44 -6 -60 0 -28 2 -29 44 -29 25 0 48 5 51
10 4 6 -10 10 -35 10 l-42 0 7 50 c8 55 -8 71 -19 19z"/>
<path d="M6740 1957 c-22 -30 -40 -57 -40 -60 0 -18 21 -3 52 38 19 24 38 42
42 38 11 -12 6 -21 -16 -28 -22 -8 -22 -8 5 -12 15 -2 32 -13 37 -24 11 -20
30 -26 30 -8 0 24 -43 109 -56 109 -7 0 -31 -24 -54 -53z"/>
<path d="M6900 1990 c-27 -27 -26 -65 2 -84 25 -18 98 -22 98 -6 0 6 -17 10
-38 10 -41 0 -62 14 -62 41 0 25 23 40 77 49 l48 8 -52 1 c-41 1 -58 -4 -73
-19z"/>
<path d="M7047 1996 c-3 -7 -9 -35 -13 -61 -5 -35 -4 -46 5 -41 6 4 11 16 11
27 0 25 6 24 47 -7 42 -32 52 -26 20 12 l-25 28 36 28 c43 35 19 37 -28 3 -19
-14 -36 -25 -38 -25 -2 0 -2 11 0 25 5 26 -6 35 -15 11z"/>
<path d="M7210 1949 c7 -11 14 -18 17 -15 8 8 -5 36 -17 36 -7 0 -7 -6 0 -21z"/>
<path d="M7270 1955 c-20 -24 -6 -28 15 -5 10 11 13 20 8 20 -6 0 -16 -7 -23
-15z"/>
<path d="M7350 1948 c0 -19 2 -20 10 -8 13 19 13 30 0 30 -5 0 -10 -10 -10
-22z"/>
<path d="M7467 1951 c-4 -17 -3 -21 5 -13 5 5 8 16 6 23 -3 8 -7 3 -11 -10z"/>
<path d="M7522 1950 c0 -14 2 -19 5 -12 2 6 2 18 0 25 -3 6 -5 1 -5 -13z"/>
<path d="M7563 1953 c9 -2 25 -2 35 0 9 3 1 5 -18 5 -19 0 -27 -2 -17 -5z"/>
<path d="M4012 1828 c2 -68 6 -83 20 -86 12 -2 18 5 20 30 l4 33 12 -28 c11
-27 37 -45 49 -34 3 3 -2 26 -10 52 -14 40 -14 49 -1 80 14 33 13 35 -6 35
-13 0 -25 -10 -32 -27 l-12 -28 -4 28 c-2 19 -9 27 -23 27 -18 0 -20 -6 -17
-82z"/>
<path d="M4132 1828 c3 -75 5 -83 23 -83 18 0 20 8 23 68 2 49 7 67 17 67 10
0 15 -18 17 -67 3 -60 5 -68 23 -68 18 0 20 8 23 68 2 37 7 67 12 67 6 0 10
-7 10 -15 0 -8 14 -27 30 -42 17 -14 30 -33 30 -42 -1 -14 -2 -13 -11 2 -12
21 -49 23 -49 2 0 -23 45 -48 72 -39 50 15 51 58 1 100 -24 20 -33 33 -25 38
7 4 12 1 12 -8 0 -10 9 -16 21 -16 15 0 20 5 17 23 -3 21 -7 22 -126 25 l-123
3 3 -83z"/>
<path d="M4592 1828 c3 -77 5 -83 26 -86 20 -3 22 1 22 37 0 23 5 41 10 41 6
0 10 -18 10 -40 0 -40 0 -40 39 -40 30 0 40 4 44 20 7 25 23 26 30 1 4 -16 13
-19 48 -18 43 2 44 3 50 42 l5 40 5 -40 c3 -32 8 -40 24 -40 18 0 20 7 22 70
0 39 -4 76 -9 83 -6 6 -30 12 -54 12 l-44 0 -1 -77 -1 -78 -16 78 c-15 77 -15
77 -47 77 -30 0 -33 -3 -41 -42 l-8 -43 -4 43 c-2 34 -7 42 -23 42 -14 0 -19
-7 -19 -25 0 -14 -4 -25 -10 -25 -5 0 -10 11 -10 25 0 20 -5 25 -25 25 -26 0
-26 0 -23 -82z m285 30 c-3 -8 -6 -5 -6 6 -1 11 2 17 5 13 3 -3 4 -12 1 -19z
m-114 -28 c3 -11 1 -23 -4 -26 -5 -3 -9 6 -9 20 0 31 6 34 13 6z"/>
<path d="M4942 1828 c2 -66 6 -83 18 -83 8 0 17 11 18 24 l4 24 12 -24 c10
-21 18 -24 71 -24 49 0 60 3 63 18 2 10 -3 17 -12 17 -9 0 -16 8 -16 20 0 11
7 20 15 20 8 0 15 7 15 15 0 8 -7 15 -15 15 -8 0 -15 7 -15 15 0 8 7 15 15 15
8 0 15 7 15 15 0 12 -14 15 -65 15 -64 0 -65 0 -66 -27 l-1 -28 -10 28 c-6 17
-17 27 -29 27 -18 0 -20 -6 -17 -82z"/>
<path d="M5152 1898 c-20 -20 -14 -46 18 -75 17 -14 29 -33 29 -42 -1 -13 -2
-13 -6 2 -3 10 -14 17 -29 17 -33 0 -29 -29 7 -49 22 -12 29 -12 57 2 18 8 32
12 32 7 0 -17 52 -21 76 -5 29 19 34 19 34 0 0 -20 68 -21 76 0 5 12 9 12 29
-1 15 -10 32 -13 47 -8 48 14 51 54 7 94 -17 15 -29 34 -26 42 4 9 6 7 6 -4 1
-25 41 -24 41 1 0 30 -63 44 -88 19 -9 -9 -12 -9 -12 0 0 7 -16 12 -40 12
l-40 0 0 -50 c0 -27 -2 -50 -4 -50 -3 0 -21 15 -42 34 -23 21 -32 36 -25 40 6
4 11 1 11 -8 0 -9 9 -16 20 -16 24 0 28 35 4 44 -25 10 -59 7 -72 -6 -9 -9
-15 -9 -24 0 -7 7 -26 12 -43 12 -17 0 -36 -5 -43 -12z m298 -33 c0 -8 -6 -15
-14 -15 -17 0 -28 14 -19 24 12 12 33 6 33 -9z m-176 -37 c20 -17 36 -39 36
-47 -1 -14 -3 -13 -14 2 -7 9 -18 17 -24 17 -11 0 -62 46 -62 55 0 15 33 1 64
-27z m225 -22 c7 -8 11 -21 8 -28 -4 -8 -6 -7 -6 5 -1 11 -9 17 -26 17 -14 0
-25 -4 -25 -10 0 -5 -9 -10 -20 -10 -12 0 -20 7 -20 16 0 9 9 18 20 21 11 3
20 9 20 15 0 11 32 -6 49 -26z"/>
<path d="M4450 1875 c-7 -8 -10 -25 -6 -39 3 -14 2 -28 -4 -31 -13 -8 -13 -42
1 -51 6 -3 33 -8 58 -9 46 -3 48 -2 48 26 0 18 -6 29 -14 29 -8 0 -13 12 -13
33 0 52 -41 77 -70 42z m40 -95 c0 -5 -4 -10 -10 -10 -5 0 -10 5 -10 10 0 6 5
10 10 10 6 0 10 -4 10 -10z"/>
<path d="M11470 1815 c0 -5 5 -17 10 -25 5 -8 10 -10 10 -5 0 6 -5 17 -10 25
-5 8 -10 11 -10 5z"/>
<path d="M11520 1811 c0 -6 4 -13 10 -16 6 -3 7 1 4 9 -7 18 -14 21 -14 7z"/>
<path d="M11601 1794 c0 -11 3 -14 6 -6 3 7 2 16 -1 19 -3 4 -6 -2 -5 -13z"/>
<path d="M2001 8254 c0 -11 3 -14 6 -6 3 7 2 16 -1 19 -3 4 -6 -2 -5 -13z"/>
<path d="M9900 900 c0 -25 4 -30 24 -30 37 0 56 10 56 30 0 20 -19 30 -56 30
-20 0 -24 -5 -24 -30z"/>
<path d="M9900 820 c0 -28 2 -30 39 -30 27 0 41 5 45 16 10 25 -12 44 -50 44
-31 0 -34 -3 -34 -30z"/>
<path d="M10527 904 c-3 -10 -8 -29 -12 -41 -5 -20 -3 -23 19 -23 30 0 34 20
12 59 -13 23 -14 23 -19 5z"/>
<path d="M9653 823 c-7 -2 -13 -11 -13 -18 0 -18 21 -24 43 -13 38 19 11 48
-30 31z"/>
<path d="M10051 858 c-16 -43 17 -85 50 -67 22 11 26 58 7 77 -19 19 -48 14
-57 -10z"/>
<path d="M10192 868 c-30 -30 -1 -91 38 -81 24 6 37 49 23 72 -13 20 -45 25
-61 9z"/>
</g>
</svg>
